<svg width="81" height="81" viewBox="0 0 81 81" fill="none" xmlns="http://www.w3.org/2000/svg">
<path d="M40.3311 7.61523C22.1162 7.61523 7.33105 22.4004 7.33105 40.6152C7.33105 58.8301 22.1162 73.6152 40.3311 73.6152C58.5459 73.6152 73.3311 58.8301 73.3311 40.6152C73.3311 22.4004 58.5459 7.61523 40.3311 7.61523ZM40.3311 9.61523C57.4639 9.61523 71.3311 23.4824 71.3311 40.6152C71.3311 57.748 57.4639 71.6152 40.3311 71.6152C23.1982 71.6152 9.33105 57.748 9.33105 40.6152C9.33105 23.4824 23.1982 9.61523 40.3311 9.61523ZM40.3311 12.6152C39.7803 12.6152 39.3311 13.0645 39.3311 13.6152C39.3311 14.166 39.7803 14.6152 40.3311 14.6152C40.8818 14.6152 41.3311 14.166 41.3311 13.6152C41.3311 13.0645 40.8818 12.6152 40.3311 12.6152ZM45.624 13.1309C45.1357 13.1191 44.7139 13.459 44.6162 13.9395C44.5107 14.4785 44.8623 15.0059 45.4053 15.1152C45.9443 15.2207 46.4717 14.8691 46.5811 14.3301C46.6865 13.7871 46.335 13.2598 45.7959 13.1504C45.7373 13.1426 45.6826 13.1348 45.624 13.1309ZM35.0693 13.1348C35.0029 13.1348 34.9365 13.1387 34.8701 13.1504C34.3271 13.2598 33.9756 13.7871 34.085 14.3301C34.1357 14.5879 34.2881 14.8184 34.5107 14.9668C34.7295 15.1113 34.999 15.166 35.2607 15.1152C35.8037 15.0059 36.1553 14.4824 36.0459 13.9395C35.9521 13.4746 35.5459 13.1387 35.0693 13.1348ZM30.0068 14.6699C29.874 14.6699 29.7412 14.6934 29.6162 14.7441C29.1045 14.959 28.8623 15.541 29.0771 16.0527C29.2881 16.5645 29.8701 16.8066 30.3818 16.5957C30.8936 16.3809 31.1357 15.7988 30.9248 15.2871C30.7686 14.916 30.4092 14.6738 30.0068 14.6699ZM50.6865 14.6699C50.2725 14.6621 49.8975 14.9043 49.7373 15.2871C49.5264 15.7988 49.7686 16.3809 50.2803 16.5957C50.792 16.8066 51.374 16.5645 51.585 16.0527C51.7998 15.541 51.5576 14.959 51.0459 14.7441C50.9326 14.6973 50.8076 14.6738 50.6865 14.6699ZM25.3428 17.1621C25.1396 17.1621 24.9404 17.2207 24.7725 17.334C24.3154 17.6387 24.1904 18.2598 24.499 18.7207C24.8037 19.1777 25.4248 19.3027 25.8857 18.9941C26.3467 18.6895 26.4678 18.0684 26.1631 17.6113C25.9795 17.334 25.6709 17.166 25.3428 17.1621ZM55.3467 17.1621C55.0068 17.1582 54.6865 17.3262 54.499 17.6113C54.1904 18.0684 54.3154 18.6895 54.7725 18.9941C55.2334 19.3027 55.8545 19.1777 56.1592 18.7207C56.3076 18.502 56.3623 18.2285 56.3115 17.9707C56.2607 17.709 56.1084 17.4785 55.8857 17.334C55.7256 17.2246 55.542 17.166 55.3467 17.1621ZM21.2529 20.5215C20.9834 20.5215 20.7217 20.627 20.5342 20.8184C20.1436 21.2051 20.1436 21.8418 20.5342 22.2285C20.9209 22.6191 21.5576 22.6191 21.9443 22.2285C22.335 21.8418 22.335 21.2051 21.9443 20.8184C21.7607 20.6309 21.5146 20.5254 21.2529 20.5215ZM59.4365 20.5215C59.167 20.5215 58.9053 20.627 58.7178 20.8184C58.3271 21.2051 58.3271 21.8418 58.7178 22.2285C59.1045 22.6191 59.7412 22.6191 60.1279 22.2285C60.5186 21.8418 60.5186 21.2051 60.1279 20.8184C59.9443 20.6309 59.6982 20.5254 59.4365 20.5215ZM62.792 24.6152C62.5889 24.6113 62.3936 24.6699 62.2256 24.7832C61.7686 25.0879 61.6436 25.709 61.9521 26.166C62.2568 26.627 62.8779 26.752 63.335 26.4434C63.7959 26.1348 63.9209 25.5176 63.6123 25.0566C63.4287 24.7832 63.1201 24.6152 62.792 24.6152ZM17.8975 24.6152C17.5576 24.6074 17.2373 24.7754 17.0498 25.0566C16.7451 25.5176 16.8662 26.1387 17.3271 26.4434C17.7881 26.752 18.4053 26.627 18.7139 26.1699C19.0186 25.709 18.8975 25.0879 18.4365 24.7832C18.2764 24.6777 18.0928 24.6191 17.8975 24.6152ZM65.2842 29.2832C65.1514 29.2793 65.0186 29.3066 64.8936 29.3574C64.3818 29.5684 64.1396 30.1543 64.3506 30.6621C64.5654 31.1738 65.1475 31.416 65.6592 31.2051C66.1709 30.9941 66.4131 30.4082 66.2021 29.8965C66.0459 29.5293 65.6865 29.2832 65.2842 29.2832ZM15.4092 29.2832C14.9951 29.2754 14.6201 29.5176 14.4639 29.9004C14.2529 30.4121 14.4951 30.9941 15.0029 31.209C15.5146 31.4199 16.1006 31.1777 16.3115 30.666C16.5225 30.1543 16.2803 29.5723 15.7686 29.3613C15.6553 29.3105 15.5342 29.2871 15.4092 29.2832ZM66.8154 34.3496C66.749 34.3457 66.6826 34.3535 66.6162 34.3652C66.0771 34.4746 65.7256 35.002 65.8311 35.541C65.9404 36.084 66.4678 36.4355 67.0068 36.3301C67.5498 36.2207 67.9014 35.6934 67.7959 35.1504C67.7021 34.6855 67.292 34.3496 66.8154 34.3496ZM13.8779 34.3496C13.3896 34.3379 12.9678 34.6738 12.8701 35.1504C12.8193 35.4121 12.8701 35.6855 13.0186 35.9043C13.167 36.127 13.3975 36.2793 13.6592 36.3301C13.917 36.3809 14.1865 36.3262 14.4092 36.1816C14.6279 36.0332 14.7803 35.8027 14.8311 35.541C14.9404 35.002 14.5889 34.4746 14.0498 34.3652C13.9912 34.3574 13.9365 34.3496 13.8779 34.3496ZM13.3311 39.6152C12.7803 39.6152 12.3311 40.0645 12.3311 40.6152C12.3311 41.166 12.7803 41.6152 13.3311 41.6152C13.8818 41.6152 14.3311 41.166 14.3311 40.6152C14.3311 40.0645 13.8818 39.6152 13.3311 39.6152ZM67.3311 39.6152C66.7803 39.6152 66.3311 40.0645 66.3311 40.6152C66.3311 41.166 66.7803 41.6152 67.3311 41.6152C67.8818 41.6152 68.3311 41.166 68.3311 40.6152C68.3311 40.0645 67.8818 39.6152 67.3311 39.6152ZM13.8545 44.8809C13.7881 44.8809 13.7217 44.8887 13.6553 44.9004C13.1123 45.0098 12.7607 45.5371 12.8701 46.0801C12.9795 46.6191 13.5029 46.9707 14.0459 46.8652C14.5889 46.7559 14.9404 46.2285 14.8311 45.6895C14.7373 45.2207 14.3311 44.8848 13.8545 44.8809ZM66.8389 44.8809C66.3506 44.8691 65.9287 45.209 65.8311 45.6895C65.7256 46.2285 66.0771 46.7559 66.6162 46.8652C67.1592 46.9707 67.6865 46.6191 67.7959 46.0801C67.9014 45.5371 67.5498 45.0098 67.0068 44.9004C66.9521 44.8926 66.8975 44.8848 66.8389 44.8809ZM65.2998 49.9434C64.8857 49.9355 64.5107 50.1816 64.3506 50.5645C64.1396 51.0723 64.3818 51.6582 64.8936 51.8691C65.4053 52.0801 65.9873 51.8379 66.2021 51.3301C66.4131 50.8184 66.1709 50.2324 65.6592 50.0215C65.5459 49.9746 65.4209 49.9473 65.2998 49.9434ZM15.3936 49.9473C15.2607 49.9473 15.1279 49.9707 15.0029 50.0215C14.7607 50.123 14.5654 50.3184 14.4639 50.5645C14.3623 50.8105 14.3623 51.084 14.46 51.3301C14.6748 51.8418 15.2568 52.084 15.7686 51.8691C16.0146 51.7715 16.21 51.5762 16.3115 51.3301C16.4131 51.084 16.4131 50.8105 16.3115 50.5645C16.1592 50.1934 15.7959 49.9512 15.3936 49.9473ZM62.7998 54.6152C62.46 54.6074 62.1396 54.7754 61.9521 55.0566C61.6436 55.5176 61.7686 56.1348 62.2256 56.4434C62.4443 56.5918 62.7178 56.6465 62.9756 56.5918C63.2373 56.541 63.4678 56.3887 63.6123 56.166C63.9209 55.709 63.7959 55.0879 63.335 54.7832C63.1787 54.6738 62.9912 54.6152 62.7998 54.6152ZM17.8936 54.6152C17.6904 54.6113 17.4951 54.6699 17.3271 54.7832C16.8701 55.0918 16.7451 55.709 17.0498 56.1699C17.3584 56.627 17.9795 56.752 18.4404 56.4434C18.8975 56.1387 19.0225 55.5176 18.7139 55.0566C18.5303 54.7832 18.2217 54.6191 17.8936 54.6152ZM21.2529 58.709C20.9834 58.7051 20.7217 58.8105 20.5342 59.002C20.1436 59.3887 20.1436 60.0254 20.5342 60.4121C20.9209 60.8027 21.5576 60.8027 21.9443 60.4121C22.335 60.0254 22.335 59.3887 21.9443 59.002C21.7607 58.8145 21.5146 58.709 21.2529 58.709ZM59.4365 58.709C59.167 58.7051 58.9053 58.8105 58.7178 59.002C58.3271 59.3887 58.3271 60.0254 58.7178 60.4121C59.1045 60.8027 59.7412 60.8027 60.1279 60.4121C60.5186 60.0254 60.5186 59.3887 60.1279 59.002C59.9443 58.8145 59.6982 58.709 59.4365 58.709ZM25.3506 62.0645C25.0107 62.0566 24.6904 62.2246 24.5029 62.5059C24.1943 62.9668 24.3193 63.5879 24.7803 63.8965C25.2373 64.2012 25.8584 64.0762 26.1631 63.6191C26.4717 63.1582 26.3467 62.541 25.8896 62.2324C25.7295 62.127 25.542 62.0645 25.3506 62.0645ZM55.3428 62.0645C55.1396 62.0605 54.9443 62.1191 54.7764 62.2285C54.5537 62.377 54.4014 62.6074 54.3506 62.8691C54.2998 63.127 54.3545 63.4004 54.5029 63.6191C54.8076 64.0762 55.4287 64.2012 55.8896 63.8965C56.3467 63.5879 56.4717 62.9668 56.1631 62.5059C55.9834 62.2324 55.6748 62.0645 55.3428 62.0645ZM30.0225 64.5566C29.6084 64.5488 29.2334 64.7949 29.0771 65.1777C28.8662 65.6855 29.1084 66.2715 29.6162 66.4824C30.1279 66.6934 30.7139 66.4512 30.9248 65.9434C31.1357 65.4316 30.8936 64.8457 30.3818 64.6348C30.2686 64.5879 30.1475 64.5605 30.0225 64.5566ZM50.6709 64.5566C50.5381 64.5566 50.4053 64.584 50.2842 64.6348C50.0381 64.7363 49.8428 64.9316 49.7412 65.1738C49.6396 65.4199 49.6396 65.6973 49.7373 65.9434C49.9521 66.4512 50.5342 66.6934 51.0459 66.4824C51.292 66.3809 51.4873 66.1855 51.5889 65.9434C51.6904 65.6973 51.6904 65.4199 51.5889 65.1777C51.4365 64.8027 51.0732 64.5605 50.6709 64.5566ZM35.0928 66.0957C34.6045 66.084 34.1787 66.4238 34.085 66.9004C33.9756 67.4434 34.3271 67.9668 34.8701 68.0762C35.4131 68.1855 35.9365 67.834 36.0459 67.291C36.1553 66.748 35.8037 66.2246 35.2607 66.1152C35.2061 66.1035 35.1475 66.0957 35.0928 66.0957ZM45.6006 66.0996C45.5342 66.0957 45.4678 66.1035 45.4053 66.1152C44.8623 66.2246 44.5107 66.748 44.6162 67.291C44.6709 67.5527 44.8232 67.7793 45.042 67.9277C45.2646 68.0762 45.5342 68.1309 45.7959 68.0801C46.0537 68.0254 46.2842 67.873 46.4326 67.6543C46.5771 67.4316 46.6318 67.1621 46.5811 66.9004C46.4873 66.4355 46.0771 66.0996 45.6006 66.0996ZM40.3311 66.6152C39.7803 66.6152 39.3311 67.0645 39.3311 67.6152C39.3311 68.166 39.7803 68.6152 40.3311 68.6152C40.8818 68.6152 41.3311 68.166 41.3311 67.6152C41.3311 67.0645 40.8818 66.6152 40.3311 66.6152Z" fill="black"/>
<path d="M35.4346 26.2916V19.526H37.6963C39.4463 19.526 40.876 20.7135 41.8564 22.2096C42.8369 23.7018 43.4346 25.5846 43.4346 27.444C43.4346 27.8601 43.3662 28.3903 43.2743 29.102L43.2705 29.1315C43.1768 29.858 43.0479 30.7135 42.9229 31.5377C42.7627 32.5729 42.7002 32.9401 42.6064 33.526H54.9346C56.8564 33.526 58.4346 35.1041 58.4346 37.026C58.4346 38.3151 57.6924 39.4049 56.6416 40.0104C57.0791 40.5338 57.4346 41.1705 57.4346 42.026C57.4346 43.319 56.6924 44.4049 55.6416 45.0104C56.0791 45.5338 56.4346 46.1705 56.4346 47.026C56.4346 48.2994 55.708 49.3737 54.6846 49.983C55.1025 50.5143 55.4346 51.1666 55.4346 52.026C55.4346 53.9479 53.8564 55.526 51.9346 55.526H34.4346C33.0049 55.526 31.8799 54.6627 31.1768 53.526H25.4346V51.526H32.3252L32.5596 52.194C32.8369 52.9713 33.5596 53.526 34.4346 53.526H51.9346C52.7744 53.526 53.4346 52.8658 53.4346 52.026C53.4346 51.2643 53.126 51.0377 52.7041 50.8073C52.2822 50.5729 51.8408 50.5221 51.8408 50.5221L51.9346 48.526H52.9346C53.7744 48.526 54.4346 47.8658 54.4346 47.026C54.4346 46.3854 54.126 46.1198 53.6807 45.858C53.2354 45.5963 52.7705 45.5104 52.7705 45.5104L52.9346 43.526H53.9346C54.7822 43.526 55.4346 42.8854 55.4346 42.026C55.4346 41.3854 55.126 41.1198 54.6807 40.858C54.2354 40.6002 53.7666 40.5104 53.7666 40.5104L53.9346 38.526H54.9346C55.7744 38.526 56.4346 37.8658 56.4346 37.026C56.4346 36.1862 55.7744 35.526 54.9346 35.526H40.2549L40.4502 34.3619C40.4502 34.3619 40.6963 32.8658 40.9463 31.233C41.0713 30.4205 41.1924 29.5729 41.2861 28.8698C41.3799 28.1705 41.4346 27.5533 41.4346 27.444C41.4346 26.0299 40.9385 24.4518 40.1846 23.3073C39.4307 22.1588 38.4932 21.526 37.6963 21.526H37.4346V26.7604L32.1416 37.526H25.4346V35.526H30.8955L35.4346 26.2916Z" fill="#ED1C24"/>
</svg>
