<svg width="128" height="128" viewBox="0 0 128 128" fill="none" xmlns="http://www.w3.org/2000/svg">
<path d="M82.8811 15.9902V19.1652H98.0987L74.1498 43.1142L55.8936 24.8579L32.5461 48.2053L34.791 50.4501L55.8936 29.3476L74.1498 47.6038L100.344 21.4101V36.6277H103.519V15.9902H82.8811ZM55.8936 33.4527C55.0192 33.4527 54.3061 34.1659 54.3061 35.0402C54.3061 35.9146 55.0192 36.6277 55.8936 36.6277C56.7679 36.6277 57.4811 35.9146 57.4811 35.0402C57.4811 34.1659 56.7679 33.4527 55.8936 33.4527ZM90.8186 36.6277C89.9442 36.6277 89.2311 37.3409 89.2311 38.2152C89.2311 39.0896 89.9442 39.8027 90.8186 39.8027C91.6929 39.8027 92.4061 39.0896 92.4061 38.2152C92.4061 37.3409 91.6929 36.6277 90.8186 36.6277ZM51.1311 38.2152C50.2567 38.2152 49.5436 38.9284 49.5436 39.8027C49.5436 40.6771 50.2567 41.3902 51.1311 41.3902C52.0054 41.3902 52.7186 40.6771 52.7186 39.8027C52.7186 38.9284 52.0054 38.2152 51.1311 38.2152ZM86.0561 41.3902C85.1817 41.3902 84.4686 42.1034 84.4686 42.9777C84.4686 43.8521 85.1817 44.5652 86.0561 44.5652C86.9304 44.5652 87.6436 43.8521 87.6436 42.9777C87.6436 42.1034 86.9304 41.3902 86.0561 41.3902ZM46.3686 42.9777C45.4942 42.9777 44.7811 43.6909 44.7811 44.5652C44.7811 45.4396 45.4942 46.1527 46.3686 46.1527C47.2429 46.1527 47.9561 45.4396 47.9561 44.5652C47.9561 43.6909 47.2429 42.9777 46.3686 42.9777ZM81.2936 46.1527C80.4192 46.1527 79.7061 46.8659 79.7061 47.7402C79.7061 48.6146 80.4192 49.3277 81.2936 49.3277C82.1679 49.3277 82.8811 48.6146 82.8811 47.7402C82.8811 46.8659 82.1679 46.1527 81.2936 46.1527ZM41.6061 47.7402C40.7317 47.7402 40.0186 48.4534 40.0186 49.3277C40.0186 50.2021 40.7317 50.9152 41.6061 50.9152C42.4804 50.9152 43.1936 50.2021 43.1936 49.3277C43.1936 48.4534 42.4804 47.7402 41.6061 47.7402ZM16.2061 58.8527V111.24H111.456V58.8527H16.2061ZM19.3811 62.0277H108.281V108.065H19.3811V62.0277ZM32.0811 65.2027C31.2067 65.2027 30.4936 65.9159 30.4936 66.7902C30.4936 67.6646 31.2067 68.3777 32.0811 68.3777C32.9554 68.3777 33.6686 67.6646 33.6686 66.7902C33.6686 65.9159 32.9554 65.2027 32.0811 65.2027ZM38.4311 65.2027C37.5567 65.2027 36.8436 65.9159 36.8436 66.7902C36.8436 67.6646 37.5567 68.3777 38.4311 68.3777C39.3054 68.3777 40.0186 67.6646 40.0186 66.7902C40.0186 65.9159 39.3054 65.2027 38.4311 65.2027ZM44.7811 65.2027C43.9067 65.2027 43.1936 65.9159 43.1936 66.7902C43.1936 67.6646 43.9067 68.3777 44.7811 68.3777C45.6554 68.3777 46.3686 67.6646 46.3686 66.7902C46.3686 65.9159 45.6554 65.2027 44.7811 65.2027ZM51.1311 65.2027C50.2567 65.2027 49.5436 65.9159 49.5436 66.7902C49.5436 67.6646 50.2567 68.3777 51.1311 68.3777C52.0054 68.3777 52.7186 67.6646 52.7186 66.7902C52.7186 65.9159 52.0054 65.2027 51.1311 65.2027ZM57.4811 65.2027C56.6067 65.2027 55.8936 65.9159 55.8936 66.7902C55.8936 67.6646 56.6067 68.3777 57.4811 68.3777C58.3554 68.3777 59.0686 67.6646 59.0686 66.7902C59.0686 65.9159 58.3554 65.2027 57.4811 65.2027ZM63.8311 65.2027C62.9567 65.2027 62.2436 65.9159 62.2436 66.7902C62.2436 67.6646 62.9567 68.3777 63.8311 68.3777C64.7054 68.3777 65.4186 67.6646 65.4186 66.7902C65.4186 65.9159 64.7054 65.2027 63.8311 65.2027ZM70.1811 65.2027C69.3067 65.2027 68.5936 65.9159 68.5936 66.7902C68.5936 67.6646 69.3067 68.3777 70.1811 68.3777C71.0554 68.3777 71.7686 67.6646 71.7686 66.7902C71.7686 65.9159 71.0554 65.2027 70.1811 65.2027ZM76.5311 65.2027C75.6567 65.2027 74.9436 65.9159 74.9436 66.7902C74.9436 67.6646 75.6567 68.3777 76.5311 68.3777C77.4054 68.3777 78.1186 67.6646 78.1186 66.7902C78.1186 65.9159 77.4054 65.2027 76.5311 65.2027ZM82.8811 65.2027C82.0067 65.2027 81.2936 65.9159 81.2936 66.7902C81.2936 67.6646 82.0067 68.3777 82.8811 68.3777C83.7554 68.3777 84.4686 67.6646 84.4686 66.7902C84.4686 65.9159 83.7554 65.2027 82.8811 65.2027ZM89.2311 65.2027C88.3567 65.2027 87.6436 65.9159 87.6436 66.7902C87.6436 67.6646 88.3567 68.3777 89.2311 68.3777C90.1054 68.3777 90.8186 67.6646 90.8186 66.7902C90.8186 65.9159 90.1054 65.2027 89.2311 65.2027ZM95.5811 65.2027C94.7067 65.2027 93.9936 65.9159 93.9936 66.7902C93.9936 67.6646 94.7067 68.3777 95.5811 68.3777C96.4554 68.3777 97.1686 67.6646 97.1686 66.7902C97.1686 65.9159 96.4554 65.2027 95.5811 65.2027ZM28.9061 69.9652C28.0317 69.9652 27.3186 70.6784 27.3186 71.5527C27.3186 72.4271 28.0317 73.1402 28.9061 73.1402C29.7804 73.1402 30.4936 72.4271 30.4936 71.5527C30.4936 70.6784 29.7804 69.9652 28.9061 69.9652ZM98.7561 69.9652C97.8817 69.9652 97.1686 70.6784 97.1686 71.5527C97.1686 72.4271 97.8817 73.1402 98.7561 73.1402C99.6304 73.1402 100.344 72.4271 100.344 71.5527C100.344 70.6784 99.6304 69.9652 98.7561 69.9652ZM63.8311 72.3465C56.8361 72.3465 51.1311 78.0516 51.1311 85.0465C51.1311 92.0414 56.8361 97.7465 63.8311 97.7465C70.826 97.7465 76.5311 92.0414 76.5311 85.0465C76.5311 78.0516 70.826 72.3465 63.8311 72.3465ZM24.1436 73.1402C23.2692 73.1402 22.5561 73.8534 22.5561 74.7277C22.5561 75.6021 23.2692 76.3152 24.1436 76.3152C25.0179 76.3152 25.7311 75.6021 25.7311 74.7277C25.7311 73.8534 25.0179 73.1402 24.1436 73.1402ZM103.519 73.1402C102.644 73.1402 101.931 73.8534 101.931 74.7277C101.931 75.6021 102.644 76.3152 103.519 76.3152C104.393 76.3152 105.106 75.6021 105.106 74.7277C105.106 73.8534 104.393 73.1402 103.519 73.1402ZM63.8311 75.5215C69.1082 75.5215 73.3561 79.7693 73.3561 85.0465C73.3561 90.3237 69.1082 94.5715 63.8311 94.5715C58.5539 94.5715 54.3061 90.3237 54.3061 85.0465C54.3061 79.7693 58.5539 75.5215 63.8311 75.5215ZM35.2561 78.6965C31.7648 78.6965 28.9061 81.5552 28.9061 85.0465C28.9061 88.5377 31.7648 91.3965 35.2561 91.3965C38.7473 91.3965 41.6061 88.5377 41.6061 85.0465C41.6061 81.5552 38.7473 78.6965 35.2561 78.6965ZM92.4061 78.6965C88.9148 78.6965 86.0561 81.5552 86.0561 85.0465C86.0561 88.5377 88.9148 91.3965 92.4061 91.3965C95.8973 91.3965 98.7561 88.5377 98.7561 85.0465C98.7561 81.5552 95.8973 78.6965 92.4061 78.6965ZM35.2561 81.8715C37.0296 81.8715 38.4311 83.2729 38.4311 85.0465C38.4311 86.82 37.0296 88.2215 35.2561 88.2215C33.4825 88.2215 32.0811 86.82 32.0811 85.0465C32.0811 83.2729 33.4825 81.8715 35.2561 81.8715ZM92.4061 81.8715C94.1796 81.8715 95.5811 83.2729 95.5811 85.0465C95.5811 86.82 94.1796 88.2215 92.4061 88.2215C90.6325 88.2215 89.2311 86.82 89.2311 85.0465C89.2311 83.2729 90.6325 81.8715 92.4061 81.8715ZM24.1436 93.7777C23.2692 93.7777 22.5561 94.4909 22.5561 95.3652C22.5561 96.2396 23.2692 96.9527 24.1436 96.9527C25.0179 96.9527 25.7311 96.2396 25.7311 95.3652C25.7311 94.4909 25.0179 93.7777 24.1436 93.7777ZM103.519 93.7777C102.644 93.7777 101.931 94.4909 101.931 95.3652C101.931 96.2396 102.644 96.9527 103.519 96.9527C104.393 96.9527 105.106 96.2396 105.106 95.3652C105.106 94.4909 104.393 93.7777 103.519 93.7777ZM28.9061 96.9527C28.0317 96.9527 27.3186 97.6659 27.3186 98.5402C27.3186 99.4146 28.0317 100.128 28.9061 100.128C29.7804 100.128 30.4936 99.4146 30.4936 98.5402C30.4936 97.6659 29.7804 96.9527 28.9061 96.9527ZM98.7561 96.9527C97.8817 96.9527 97.1686 97.6659 97.1686 98.5402C97.1686 99.4146 97.8817 100.128 98.7561 100.128C99.6304 100.128 100.344 99.4146 100.344 98.5402C100.344 97.6659 99.6304 96.9527 98.7561 96.9527ZM32.0811 101.715C31.2067 101.715 30.4936 102.428 30.4936 103.303C30.4936 104.177 31.2067 104.89 32.0811 104.89C32.9554 104.89 33.6686 104.177 33.6686 103.303C33.6686 102.428 32.9554 101.715 32.0811 101.715ZM38.4311 101.715C37.5567 101.715 36.8436 102.428 36.8436 103.303C36.8436 104.177 37.5567 104.89 38.4311 104.89C39.3054 104.89 40.0186 104.177 40.0186 103.303C40.0186 102.428 39.3054 101.715 38.4311 101.715ZM44.7811 101.715C43.9067 101.715 43.1936 102.428 43.1936 103.303C43.1936 104.177 43.9067 104.89 44.7811 104.89C45.6554 104.89 46.3686 104.177 46.3686 103.303C46.3686 102.428 45.6554 101.715 44.7811 101.715ZM51.1311 101.715C50.2567 101.715 49.5436 102.428 49.5436 103.303C49.5436 104.177 50.2567 104.89 51.1311 104.89C52.0054 104.89 52.7186 104.177 52.7186 103.303C52.7186 102.428 52.0054 101.715 51.1311 101.715ZM57.4811 101.715C56.6067 101.715 55.8936 102.428 55.8936 103.303C55.8936 104.177 56.6067 104.89 57.4811 104.89C58.3554 104.89 59.0686 104.177 59.0686 103.303C59.0686 102.428 58.3554 101.715 57.4811 101.715ZM63.8311 101.715C62.9567 101.715 62.2436 102.428 62.2436 103.303C62.2436 104.177 62.9567 104.89 63.8311 104.89C64.7054 104.89 65.4186 104.177 65.4186 103.303C65.4186 102.428 64.7054 101.715 63.8311 101.715ZM70.1811 101.715C69.3067 101.715 68.5936 102.428 68.5936 103.303C68.5936 104.177 69.3067 104.89 70.1811 104.89C71.0554 104.89 71.7686 104.177 71.7686 103.303C71.7686 102.428 71.0554 101.715 70.1811 101.715ZM76.5311 101.715C75.6567 101.715 74.9436 102.428 74.9436 103.303C74.9436 104.177 75.6567 104.89 76.5311 104.89C77.4054 104.89 78.1186 104.177 78.1186 103.303C78.1186 102.428 77.4054 101.715 76.5311 101.715ZM82.8811 101.715C82.0067 101.715 81.2936 102.428 81.2936 103.303C81.2936 104.177 82.0067 104.89 82.8811 104.89C83.7554 104.89 84.4686 104.177 84.4686 103.303C84.4686 102.428 83.7554 101.715 82.8811 101.715ZM89.2311 101.715C88.3567 101.715 87.6436 102.428 87.6436 103.303C87.6436 104.177 88.3567 104.89 89.2311 104.89C90.1054 104.89 90.8186 104.177 90.8186 103.303C90.8186 102.428 90.1054 101.715 89.2311 101.715ZM95.5811 101.715C94.7067 101.715 93.9936 102.428 93.9936 103.303C93.9936 104.177 94.7067 104.89 95.5811 104.89C96.4554 104.89 97.1686 104.177 97.1686 103.303C97.1686 102.428 96.4554 101.715 95.5811 101.715Z" fill="white"/>
</svg>
