<svg width="128" height="128" viewBox="0 0 128 128" fill="none" xmlns="http://www.w3.org/2000/svg">
<path d="M64.3309 5.67249C59.9659 5.67249 56.3934 9.24503 56.3934 13.61C56.3934 17.9749 59.9659 21.5475 64.3309 21.5475C68.6958 21.5475 72.2684 17.9749 72.2684 13.61C72.2684 9.24503 68.6958 5.67249 64.3309 5.67249ZM64.3309 21.5475L63.0596 22.1862L62.8085 23.5846L63.779 24.6233L64.3309 24.7225L65.6021 24.0838L65.8532 22.6854L64.8828 21.6467L64.3309 21.5475ZM64.3309 8.84749C66.9799 8.84749 69.0934 10.9609 69.0934 13.61C69.0934 16.259 66.9799 18.3725 64.3309 18.3725C61.6818 18.3725 59.5684 16.259 59.5684 13.61C59.5684 10.9609 61.6818 8.84749 64.3309 8.84749ZM64.3309 27.8975L63.0596 28.5362L62.8085 29.9346L63.779 30.9733L64.3309 31.0725L65.6021 30.4338L65.8532 29.0354L64.8828 27.9967L64.3309 27.8975ZM19.8809 29.485C15.5159 29.485 11.9434 33.0575 11.9434 37.4225C11.9434 41.7874 15.5159 45.36 19.8809 45.36C24.2458 45.36 27.8184 41.7874 27.8184 37.4225C27.8184 33.0575 24.2458 29.485 19.8809 29.485ZM108.781 29.485C104.416 29.485 100.843 33.0575 100.843 37.4225C100.843 41.7874 104.416 45.36 108.781 45.36C113.146 45.36 116.718 41.7874 116.718 37.4225C116.718 33.0575 113.146 29.485 108.781 29.485ZM19.8809 32.66C22.5299 32.66 24.6434 34.7734 24.6434 37.4225C24.6434 40.0715 22.5299 42.185 19.8809 42.185C17.2318 42.185 15.1184 40.0715 15.1184 37.4225C15.1184 34.7734 17.2318 32.66 19.8809 32.66ZM63.0348 32.66C57.9402 32.66 53.27 35.2412 49.8263 37.7232C46.3826 40.2053 44.1057 42.7028 44.1057 42.7028L42.6764 44.2748L44.5894 45.2019C44.5894 45.2019 45.0352 45.3978 45.6312 46.1382C46.2272 46.8786 46.8684 48.0658 46.8684 50.1225C46.8684 52.734 47.5378 55.3528 48.0342 56.9903C47.004 57.5995 46.2854 58.6896 46.2854 59.9637C46.2854 60.8091 46.5119 61.386 46.6854 61.9698C46.7722 62.2617 46.8563 62.5296 46.9087 62.7202C46.9611 62.9108 46.9552 63.1156 46.9552 62.8225C46.9552 64.5961 48.4704 65.9975 50.2108 65.9975H50.4154C50.993 69.5755 52.8534 72.7255 55.5314 74.9055C54.2114 75.2826 51.1111 76.2067 47.3396 77.9409C44.9945 79.0193 42.6218 80.3255 40.7385 81.9221C38.8552 83.5187 37.3434 85.514 37.3434 87.9558V96.16H40.5184H89.7309H91.3184V87.9558C91.3184 85.514 89.8065 83.5187 87.9232 81.9221C86.0399 80.3255 83.6672 79.0193 81.3221 77.9409C77.498 76.1825 74.3512 75.2536 73.1334 74.9086C75.862 72.6978 77.7406 69.4794 78.2835 65.827C79.8162 65.6011 81.1236 64.4408 81.1236 62.8225C81.1236 63.1156 81.1178 62.9108 81.1701 62.7202C81.2225 62.5296 81.3066 62.2617 81.3934 61.9698C81.5669 61.386 81.7934 60.8091 81.7934 59.9637C81.7934 58.8397 81.2198 57.9104 80.3702 57.3158C80.5014 56.6626 80.6745 55.8451 80.9779 54.0478C81.38 51.6656 81.7934 48.9015 81.7934 46.9475C81.7934 43.1522 80.1839 40.3452 78.1006 38.6503C76.2418 37.1381 74.1343 36.5323 72.2808 36.3993C71.9649 35.974 71.7331 35.5086 70.6033 34.7436C69.0228 33.6733 66.5367 32.66 63.0348 32.66ZM108.781 32.66C111.43 32.66 113.543 34.7734 113.543 37.4225C113.543 40.0715 111.43 42.185 108.781 42.185C106.132 42.185 104.018 40.0715 104.018 37.4225C104.018 34.7734 106.132 32.66 108.781 32.66ZM63.0348 35.835C65.9385 35.835 67.7304 36.6326 68.8236 37.3729C69.9168 38.1131 70.2189 38.6782 70.2189 38.6782L70.6809 39.4565H71.5862C72.8037 39.4565 74.6725 39.9528 76.0976 41.1122C77.5227 42.2716 78.6184 44.0022 78.6184 46.9475C78.6184 47.7276 78.5029 48.8902 78.3424 50.1535C77.8468 47.8103 76.7493 46.067 75.6387 44.9042C74.1402 43.3353 72.5288 42.6966 72.5288 42.6966L71.5242 42.3028L70.7894 43.0966C70.7894 43.0966 70.1317 43.8269 68.5384 44.6717C66.945 45.5164 64.5167 46.3832 61.1559 46.3832C59.1854 46.3832 56.6057 46.949 54.3098 48.4265C52.6299 49.5075 51.1335 51.1913 50.4464 53.406C50.2255 52.3114 50.0434 51.1749 50.0434 50.1225C50.0434 47.3675 49.097 45.3793 48.1055 44.1477C47.9049 43.8984 47.8766 43.9777 47.6745 43.7818C48.3724 43.0659 49.2546 42.0452 51.6805 40.2967C54.8444 38.0163 59.0505 35.835 63.0348 35.835ZM28.826 40.3401L27.5548 40.9758L27.3037 42.3772L28.2772 43.4159L28.826 43.5151L30.0973 42.8764L30.3484 41.4749L29.378 40.4363L28.826 40.3401ZM99.8357 40.3401L98.5644 40.9758L98.3133 42.3772L99.2838 43.4159L99.8357 43.5151L101.107 42.8764L101.358 41.4749L100.384 40.4363L99.8357 40.3401ZM34.1684 43.7725L32.8971 44.4112L32.646 45.8096L33.6165 46.8483L34.1684 46.9475L35.4396 46.3088L35.6907 44.9104L34.7203 43.8717L34.1684 43.7725ZM94.4934 43.7725L93.2221 44.4112L92.971 45.8096L93.9415 46.8483L94.4934 46.9475L95.7646 46.3088L96.0157 44.9104L95.0453 43.8717L94.4934 43.7725ZM71.9614 46.0855C72.2989 46.2573 72.6137 46.3314 73.3443 47.0963C74.385 48.186 75.4434 49.8964 75.4434 52.8262V60.1591L77.3223 59.8056C77.5942 59.7546 77.8458 59.7113 78.0292 59.6816C78.2127 59.6519 78.4484 59.6475 78.2029 59.6475C78.4943 59.6475 78.6184 59.8118 78.6184 59.9637C78.6184 59.8883 78.5101 60.5212 78.3486 61.0645C78.2679 61.3361 78.1831 61.6104 78.1099 61.8768C78.0366 62.1432 77.9486 62.3095 77.9486 62.8225C77.9486 62.7887 77.9693 62.8225 77.8618 62.8225H75.4868L75.4124 64.3325C75.158 69.5345 71.3149 73.7783 66.2904 74.6729L65.8408 74.7535L65.5029 75.0605C65.1732 75.3594 64.791 75.5225 64.3309 75.5225C63.8707 75.5225 63.4886 75.3594 63.1588 75.0605L62.8209 74.7535L62.3713 74.6729C57.3468 73.7783 53.5038 69.5345 53.2494 64.3325L53.1749 62.8225H50.2108C50.1033 62.8225 50.1302 62.7983 50.1302 62.8225C50.1302 62.3095 50.0422 62.1432 49.9689 61.8768C49.8957 61.6104 49.8109 61.3361 49.7302 61.0645C49.5687 60.5212 49.4604 59.8883 49.4604 59.9637C49.4604 59.8183 49.5733 59.6856 49.8232 59.663H49.8263C49.9281 59.6735 50.1074 59.6895 50.2573 59.7157C50.5593 59.7684 50.948 59.8438 51.3332 59.9172L53.2184 60.2769V56.0508C53.2184 53.6012 54.3781 52.1575 56.0275 51.0961C57.6769 50.0347 59.8577 49.5582 61.1559 49.5582C65.069 49.5582 68.0402 48.5308 70.0266 47.4777C71.271 46.818 71.464 46.5199 71.9614 46.0855ZM59.5684 59.6475C58.6936 59.6475 57.9809 60.3603 57.9809 61.235C57.9809 62.1097 58.6936 62.8225 59.5684 62.8225C60.4431 62.8225 61.1559 62.1097 61.1559 61.235C61.1559 60.3603 60.4431 59.6475 59.5684 59.6475ZM69.0934 59.6475C68.2186 59.6475 67.5059 60.3603 67.5059 61.235C67.5059 62.1097 68.2186 62.8225 69.0934 62.8225C69.9681 62.8225 70.6809 62.1097 70.6809 61.235C70.6809 60.3603 69.9681 59.6475 69.0934 59.6475ZM59.5684 77.1751C60.1697 77.391 60.786 77.5786 61.4256 77.7115C62.2354 78.3099 63.236 78.6975 64.3309 78.6975C65.4257 78.6975 66.4263 78.3099 67.2361 77.7115C67.8748 77.5788 68.4923 77.3971 69.0934 77.1813V79.7362C68.8697 80.1178 67.7472 81.8725 64.3309 81.8725C60.9146 81.8725 59.792 80.1178 59.5684 79.7362V77.1751ZM56.3934 77.9595V80.7129L56.6042 81.0818C56.6042 81.0818 59.0586 85.0475 64.3309 85.0475C69.6031 85.0475 72.0575 81.0818 72.0575 81.0818L72.2684 80.7129V77.9595C73.5329 78.3236 76.4771 79.2099 79.995 80.8276C82.1862 81.8352 84.3517 83.056 85.8706 84.3437C87.3895 85.6313 88.1434 86.8781 88.1434 87.9558V92.985H40.5184V87.9558C40.5184 86.8781 41.2722 85.6313 42.7911 84.3437C44.31 83.056 46.4755 81.8352 48.6667 80.8276C52.1846 79.2099 55.1288 78.3236 56.3934 77.9595ZM34.1684 83.46L32.8971 84.0987L32.646 85.4971L33.6165 86.5358L34.1684 86.635L35.4396 85.9963L35.6907 84.5979L34.7203 83.5592L34.1684 83.46ZM94.5833 83.46L93.312 84.0987L93.0609 85.4971L94.0314 86.5358L94.5833 86.635L95.8545 85.9963L96.1057 84.5979L95.1321 83.5592L94.5833 83.46ZM19.8809 86.635C15.5159 86.635 11.9434 90.2075 11.9434 94.5725C11.9434 98.9374 15.5159 102.51 19.8809 102.51C24.2458 102.51 27.8184 98.9374 27.8184 94.5725C27.8184 90.2075 24.2458 86.635 19.8809 86.635ZM108.781 86.635C104.416 86.635 100.843 90.2075 100.843 94.5725C100.843 98.9374 104.416 102.51 108.781 102.51C113.146 102.51 116.718 98.9374 116.718 94.5725C116.718 90.2075 113.146 86.635 108.781 86.635ZM28.826 86.8923L27.5548 87.5311L27.3037 88.9325L28.2772 89.9712L28.826 90.0673L30.0973 89.4317L30.3484 88.0303L29.378 86.9916L28.826 86.8923ZM99.9225 86.8923L98.6512 87.5311L98.4001 88.9325L99.3737 89.9712L99.9225 90.0673L101.197 89.4317L101.445 88.0303L100.474 86.9916L99.9225 86.8923ZM19.8809 89.81C22.5299 89.81 24.6434 91.9234 24.6434 94.5725C24.6434 97.2215 22.5299 99.335 19.8809 99.335C17.2318 99.335 15.1184 97.2215 15.1184 94.5725C15.1184 91.9234 17.2318 89.81 19.8809 89.81ZM108.781 89.81C111.43 89.81 113.543 91.9234 113.543 94.5725C113.543 97.2215 111.43 99.335 108.781 99.335C106.132 99.335 104.018 97.2215 104.018 94.5725C104.018 91.9234 106.132 89.81 108.781 89.81ZM64.3309 97.7475L63.0596 98.3862L62.8085 99.7846L63.779 100.823L64.3309 100.922L65.6021 100.284L65.8532 98.8854L64.8828 97.8467L64.3309 97.7475ZM64.3309 104.097L63.0596 104.736L62.8085 106.135L63.779 107.173L64.3309 107.272L65.6021 106.634L65.8532 105.235L64.8828 104.197L64.3309 104.097ZM64.3309 107.272C59.9659 107.272 56.3934 110.845 56.3934 115.21C56.3934 119.575 59.9659 123.147 64.3309 123.147C68.6958 123.147 72.2684 119.575 72.2684 115.21C72.2684 110.845 68.6958 107.272 64.3309 107.272ZM64.3309 110.447C66.9799 110.447 69.0934 112.561 69.0934 115.21C69.0934 117.859 66.9799 119.972 64.3309 119.972C61.6818 119.972 59.5684 117.859 59.5684 115.21C59.5684 112.561 61.6818 110.447 64.3309 110.447Z" fill="white"/>
</svg>
