<svg width="128" height="128" viewBox="0 0 128 128" fill="none" xmlns="http://www.w3.org/2000/svg">
<g clip-path="url(#clip0_291_1645)">
<path d="M24.6436 20.7527C20.2668 20.7527 16.7061 24.3134 16.7061 28.6902V106.478H73.9026C73.1469 105.474 72.4545 104.42 71.8624 103.303H19.8811V36.6277C20.3021 36.6277 20.7059 36.4604 21.0036 36.1627C21.3013 35.865 21.4686 35.4612 21.4686 35.0402C21.4686 34.6192 21.3013 34.2154 21.0036 33.9177C20.7059 33.6199 20.3021 33.4527 19.8811 33.4527V28.6902C19.8811 26.0645 22.0178 23.9277 24.6436 23.9277H104.019C106.644 23.9277 108.781 26.0645 108.781 28.6902V33.4527C108.36 33.4527 107.956 33.6199 107.659 33.9177C107.361 34.2154 107.194 34.6192 107.194 35.0402C107.194 35.4612 107.361 35.865 107.659 36.1627C107.956 36.4604 108.36 36.6277 108.781 36.6277V74.492C109.951 75.5414 111.013 76.7027 111.956 77.9616V28.6902C111.956 24.3134 108.395 20.7527 104.019 20.7527H24.6436ZM26.2311 33.4527C25.81 33.4527 25.4062 33.6199 25.1085 33.9177C24.8108 34.2154 24.6436 34.6192 24.6436 35.0402C24.6436 35.4612 24.8108 35.865 25.1085 36.1627C25.4062 36.4604 25.81 36.6277 26.2311 36.6277C26.6521 36.6277 27.0559 36.4604 27.3536 36.1627C27.6513 35.865 27.8186 35.4612 27.8186 35.0402C27.8186 34.6192 27.6513 34.2154 27.3536 33.9177C27.0559 33.6199 26.6521 33.4527 26.2311 33.4527ZM32.5811 33.4527C32.16 33.4527 31.7562 33.6199 31.4585 33.9177C31.1608 34.2154 30.9936 34.6192 30.9936 35.0402C30.9936 35.4612 31.1608 35.865 31.4585 36.1627C31.7562 36.4604 32.16 36.6277 32.5811 36.6277C33.0021 36.6277 33.4059 36.4604 33.7036 36.1627C34.0013 35.865 34.1686 35.4612 34.1686 35.0402C34.1686 34.6192 34.0013 34.2154 33.7036 33.9177C33.4059 33.6199 33.0021 33.4527 32.5811 33.4527ZM38.9311 33.4527C38.51 33.4527 38.1062 33.6199 37.8085 33.9177C37.5108 34.2154 37.3436 34.6192 37.3436 35.0402C37.3436 35.4612 37.5108 35.865 37.8085 36.1627C38.1062 36.4604 38.51 36.6277 38.9311 36.6277C39.3521 36.6277 39.7559 36.4604 40.0536 36.1627C40.3513 35.865 40.5186 35.4612 40.5186 35.0402C40.5186 34.6192 40.3513 34.2154 40.0536 33.9177C39.7559 33.6199 39.3521 33.4527 38.9311 33.4527ZM45.2811 33.4527C44.86 33.4527 44.4562 33.6199 44.1585 33.9177C43.8608 34.2154 43.6936 34.6192 43.6936 35.0402C43.6936 35.4612 43.8608 35.865 44.1585 36.1627C44.4562 36.4604 44.86 36.6277 45.2811 36.6277C45.7021 36.6277 46.1059 36.4604 46.4036 36.1627C46.7013 35.865 46.8686 35.4612 46.8686 35.0402C46.8686 34.6192 46.7013 34.2154 46.4036 33.9177C46.1059 33.6199 45.7021 33.4527 45.2811 33.4527ZM51.6311 33.4527C51.21 33.4527 50.8062 33.6199 50.5085 33.9177C50.2108 34.2154 50.0436 34.6192 50.0436 35.0402C50.0436 35.4612 50.2108 35.865 50.5085 36.1627C50.8062 36.4604 51.21 36.6277 51.6311 36.6277C52.0521 36.6277 52.4559 36.4604 52.7536 36.1627C53.0513 35.865 53.2186 35.4612 53.2186 35.0402C53.2186 34.6192 53.0513 34.2154 52.7536 33.9177C52.4559 33.6199 52.0521 33.4527 51.6311 33.4527ZM57.9811 33.4527C57.56 33.4527 57.1562 33.6199 56.8585 33.9177C56.5608 34.2154 56.3936 34.6192 56.3936 35.0402C56.3936 35.4612 56.5608 35.865 56.8585 36.1627C57.1562 36.4604 57.56 36.6277 57.9811 36.6277C58.4021 36.6277 58.8059 36.4604 59.1036 36.1627C59.4013 35.865 59.5686 35.4612 59.5686 35.0402C59.5686 34.6192 59.4013 34.2154 59.1036 33.9177C58.8059 33.6199 58.4021 33.4527 57.9811 33.4527ZM64.3311 33.4527C63.91 33.4527 63.5062 33.6199 63.2085 33.9177C62.9108 34.2154 62.7436 34.6192 62.7436 35.0402C62.7436 35.4612 62.9108 35.865 63.2085 36.1627C63.5062 36.4604 63.91 36.6277 64.3311 36.6277C64.7521 36.6277 65.1559 36.4604 65.4536 36.1627C65.7513 35.865 65.9186 35.4612 65.9186 35.0402C65.9186 34.6192 65.7513 34.2154 65.4536 33.9177C65.1559 33.6199 64.7521 33.4527 64.3311 33.4527ZM70.6811 33.4527C70.26 33.4527 69.8562 33.6199 69.5585 33.9177C69.2608 34.2154 69.0936 34.6192 69.0936 35.0402C69.0936 35.4612 69.2608 35.865 69.5585 36.1627C69.8562 36.4604 70.26 36.6277 70.6811 36.6277C71.1021 36.6277 71.5059 36.4604 71.8036 36.1627C72.1013 35.865 72.2686 35.4612 72.2686 35.0402C72.2686 34.6192 72.1013 34.2154 71.8036 33.9177C71.5059 33.6199 71.1021 33.4527 70.6811 33.4527ZM77.0311 33.4527C76.61 33.4527 76.2062 33.6199 75.9085 33.9177C75.6108 34.2154 75.4436 34.6192 75.4436 35.0402C75.4436 35.4612 75.6108 35.865 75.9085 36.1627C76.2062 36.4604 76.61 36.6277 77.0311 36.6277C77.4521 36.6277 77.8559 36.4604 78.1536 36.1627C78.4513 35.865 78.6186 35.4612 78.6186 35.0402C78.6186 34.6192 78.4513 34.2154 78.1536 33.9177C77.8559 33.6199 77.4521 33.4527 77.0311 33.4527ZM83.3811 33.4527C82.96 33.4527 82.5562 33.6199 82.2585 33.9177C81.9608 34.2154 81.7936 34.6192 81.7936 35.0402C81.7936 35.4612 81.9608 35.865 82.2585 36.1627C82.5562 36.4604 82.96 36.6277 83.3811 36.6277C83.8021 36.6277 84.2059 36.4604 84.5036 36.1627C84.8013 35.865 84.9686 35.4612 84.9686 35.0402C84.9686 34.6192 84.8013 34.2154 84.5036 33.9177C84.2059 33.6199 83.8021 33.4527 83.3811 33.4527ZM89.7311 33.4527C89.31 33.4527 88.9062 33.6199 88.6085 33.9177C88.3108 34.2154 88.1436 34.6192 88.1436 35.0402C88.1436 35.4612 88.3108 35.865 88.6085 36.1627C88.9062 36.4604 89.31 36.6277 89.7311 36.6277C90.1521 36.6277 90.5559 36.4604 90.8536 36.1627C91.1513 35.865 91.3186 35.4612 91.3186 35.0402C91.3186 34.6192 91.1513 34.2154 90.8536 33.9177C90.5559 33.6199 90.1521 33.4527 89.7311 33.4527ZM96.0811 33.4527C95.66 33.4527 95.2562 33.6199 94.9585 33.9177C94.6608 34.2154 94.4936 34.6192 94.4936 35.0402C94.4936 35.4612 94.6608 35.865 94.9585 36.1627C95.2562 36.4604 95.66 36.6277 96.0811 36.6277C96.5021 36.6277 96.9059 36.4604 97.2036 36.1627C97.5013 35.865 97.6686 35.4612 97.6686 35.0402C97.6686 34.6192 97.5013 34.2154 97.2036 33.9177C96.9059 33.6199 96.5021 33.4527 96.0811 33.4527ZM102.431 33.4527C102.01 33.4527 101.606 33.6199 101.309 33.9177C101.011 34.2154 100.844 34.6192 100.844 35.0402C100.844 35.4612 101.011 35.865 101.309 36.1627C101.606 36.4604 102.01 36.6277 102.431 36.6277C102.852 36.6277 103.256 36.4604 103.554 36.1627C103.851 35.865 104.019 35.4612 104.019 35.0402C104.019 34.6192 103.851 34.2154 103.554 33.9177C103.256 33.6199 102.852 33.4527 102.431 33.4527ZM37.3436 46.1527V47.7743C35.3237 47.9403 33.9 49.0181 33.2601 50.1152C32.5651 51.3068 32.5811 52.5027 32.5811 52.5027C32.5811 52.5027 32.5651 53.6985 33.2601 54.8901C33.9 55.9873 35.3237 57.0651 37.3436 57.2311V60.3751C36.4734 60.2446 36.2038 59.9095 36.0103 59.5999C35.7663 59.2095 35.7561 58.8527 35.7561 58.8527H32.5811C32.5811 58.8527 32.5707 60.0833 33.319 61.2804C33.9817 62.3407 35.3639 63.3477 37.3436 63.5656V65.2027H38.9311V63.5656C40.9107 63.3477 42.2929 62.3407 42.9556 61.2804C43.7038 60.0833 43.6936 58.8527 43.6936 58.8527C43.6936 58.8527 43.6969 57.5848 42.8967 56.3846C42.2152 55.3625 40.8672 54.4226 38.9311 54.1646V50.9989C39.783 51.1558 40.0613 51.5053 40.255 51.7958C40.5133 52.1831 40.5186 52.5027 40.5186 52.5027H43.6936C43.6936 52.5027 43.6969 51.2348 42.8967 50.0346C42.2152 49.0125 40.8672 48.0726 38.9311 47.8146V46.1527H37.3436ZM51.6311 50.9152V54.0902H96.0811V50.9152H51.6311ZM37.3436 50.9586V54.0468C36.4431 53.9492 36.1992 53.6247 36.0041 53.2902C35.7732 52.8943 35.7561 52.5027 35.7561 52.5027C35.7561 52.5027 35.7732 52.111 36.0041 51.7151C36.1992 51.3807 36.4431 51.0561 37.3436 50.9586ZM38.9311 57.3489C39.783 57.5058 40.0613 57.8553 40.255 58.1458C40.5133 58.5331 40.5186 58.8527 40.5186 58.8527C40.5186 58.8527 40.5082 59.2095 40.2643 59.5999C40.0709 59.9095 39.8013 60.2446 38.9311 60.3751V57.3489ZM51.6311 58.8527V62.0277H96.0811V58.8527H51.6311ZM37.3436 71.5527V73.1743C35.3237 73.3403 33.9 74.4181 33.2601 75.5152C32.5651 76.7068 32.5811 77.9027 32.5811 77.9027C32.5811 77.9027 32.5651 79.0985 33.2601 80.2901C33.9 81.3873 35.3237 82.4651 37.3436 82.6311V85.7751C36.4734 85.6446 36.2038 85.3095 36.0103 84.9999C35.7663 84.6095 35.7561 84.2527 35.7561 84.2527H32.5811C32.5811 84.2527 32.5707 85.4833 33.319 86.6805C33.9817 87.7407 35.3639 88.7477 37.3436 88.9656V90.6027H38.9311V88.9656C40.9107 88.7477 42.2929 87.7407 42.9556 86.6805C43.7038 85.4833 43.6936 84.2527 43.6936 84.2527C43.6936 84.2527 43.6969 82.9848 42.8967 81.7846C42.2152 80.7625 40.8672 79.8226 38.9311 79.5646V76.3989C39.783 76.5558 40.0613 76.9053 40.255 77.1958C40.5133 77.5831 40.5186 77.9027 40.5186 77.9027H43.6936C43.6936 77.9027 43.6969 76.6348 42.8967 75.4346C42.2152 74.4125 40.8672 73.4726 38.9311 73.2146V71.5527H37.3436ZM92.9092 73.1402C82.4047 73.1402 73.8592 81.6857 73.8592 92.1902C73.8592 102.695 82.4047 111.24 92.9092 111.24C97.5907 111.24 101.876 109.534 105.197 106.723L109.742 111.271L109.683 111.33C108.483 112.529 108.483 114.48 109.683 115.68L120.219 126.216C120.8 126.797 121.572 127.115 122.393 127.115C123.213 127.115 123.99 126.794 124.569 126.213L126.932 123.85C128.132 122.652 128.13 120.699 126.932 119.5L116.399 108.967C115.234 107.805 113.205 107.805 112.046 108.967L111.987 109.026L107.442 104.478C110.253 101.157 111.959 96.8717 111.959 92.1902C111.959 81.6857 103.414 73.1402 92.9092 73.1402ZM51.6311 76.3152V79.4902H72.7988C73.5131 78.3631 74.3189 77.3042 75.2079 76.3152H51.6311ZM92.9092 76.3152C101.663 76.3152 108.784 83.4367 108.784 92.1902C108.784 100.944 101.663 108.065 92.9092 108.065C84.1557 108.065 77.0342 100.944 77.0342 92.1902C77.0342 83.4367 84.1557 76.3152 92.9092 76.3152ZM37.3436 76.3586V79.4468C36.4431 79.3492 36.1992 79.0247 36.0041 78.6902C35.7732 78.2943 35.7561 77.9027 35.7561 77.9027C35.7561 77.9027 35.7732 77.511 36.0041 77.1151C36.1992 76.7807 36.4431 76.4561 37.3436 76.3586ZM38.9311 82.7489C39.783 82.9058 40.0613 83.2553 40.255 83.5458C40.5133 83.9331 40.5186 84.2527 40.5186 84.2527C40.5186 84.2527 40.5082 84.6095 40.2643 84.9999C40.0709 85.3095 39.8013 85.6446 38.9311 85.7751V82.7489ZM51.6311 84.2527V87.4277H69.5741C69.7964 86.3371 70.119 85.2846 70.4857 84.2527H51.6311ZM114.151 111.212L124.687 121.605L122.461 123.968L111.996 113.504L114.151 111.212Z" fill="white"/>
</g>
<defs>
<clipPath id="clip0_291_1645">
<rect width="127" height="127" fill="white" transform="translate(0.831055 0.115234)"/>
</clipPath>
</defs>
</svg>
