<svg width="81" height="81" viewBox="0 0 81 81" fill="none" xmlns="http://www.w3.org/2000/svg">
<path fill-rule="evenodd" clip-rule="evenodd" d="M39.8818 8.7207L40.3311 8.49805L40.7803 8.7207C40.7803 8.7207 52.5811 14.6152 68.3311 14.6152H69.3311V15.6152C69.3311 38.8184 62.2412 52.8457 55.0811 61.0215C47.9248 69.2012 40.6396 71.5684 40.6396 71.5684L40.3311 71.666L40.0225 71.5684C40.0225 71.5684 32.7373 69.2012 25.5811 61.0215C18.4209 52.8457 11.3311 38.8184 11.3311 15.6152V14.6152H12.3311C28.0811 14.6152 39.8818 8.7207 39.8818 8.7207ZM67.2959 16.5684C52.4131 16.3262 41.4795 11.2637 40.3311 10.709C39.1826 11.2637 28.249 16.3262 13.3662 16.5684C13.5654 38.7637 20.3389 52.002 27.0811 59.709C33.6787 67.2441 39.8701 69.3613 40.3311 69.5176C40.792 69.3613 46.9834 67.2441 53.5811 59.709C60.3232 52.002 67.0967 38.7637 67.2959 16.5684ZM38.1084 15.9316L38.4561 15.8691L39.2568 16.2676L39.4209 17.1465L38.8154 17.8066L38.7217 17.8418L38.374 17.9082L37.5693 17.5059L37.4053 16.627L38.0146 15.9707L38.1084 15.9316ZM41.6436 16.0488L42.5342 15.9434L42.6279 15.9746L42.9326 16.1504L43.2842 16.9746L42.8389 17.752L41.9482 17.8574L41.8545 17.8223L41.5498 17.6465L41.1943 16.8262L41.6436 16.0488ZM34.2959 17.2363L34.6436 17.1934L35.4209 17.6426L35.5264 18.5332L34.8779 19.1504L34.7803 19.1777L34.4287 19.2207L33.6553 18.7715L33.5498 17.8809L34.2021 17.2637L34.2959 17.2363ZM45.4717 17.3965L46.3545 17.2363L46.4521 17.2637L46.7686 17.4238L47.1709 18.2246L46.7686 19.0215L45.8857 19.1816L45.7881 19.1543L45.4756 18.998L45.0732 18.1973L45.4717 17.3965ZM30.4131 18.3223L30.7686 18.3066L31.5107 18.8027L31.5615 19.6973L30.874 20.2715L30.7725 20.2949L30.4248 20.3145L29.6748 19.8184L29.6279 18.9238L30.3154 18.3496L30.4131 18.3223ZM49.3936 18.5098L50.2686 18.3223L50.3623 18.3496L50.6865 18.4941L51.1123 19.2793L50.7412 20.0957L49.8662 20.2832L49.7686 20.2559L49.4482 20.1113L49.0186 19.3262L49.3936 18.5098ZM26.4521 19.2012L26.7998 19.1934L27.5303 19.7168L27.5498 20.6152L26.8428 21.1621L26.7412 21.1816L26.3896 21.1895L25.6592 20.666L25.6436 19.7715L26.3506 19.2207L26.4521 19.2012ZM53.3311 19.459L54.1904 19.2051L54.2881 19.2246L54.6162 19.3457L55.1045 20.0996L54.7959 20.9395L53.9365 21.1934L53.835 21.1738L53.5029 21.0527L53.0186 20.2988L53.3311 19.459ZM57.3389 20.1621L58.1865 19.8691L58.2842 19.8848L58.6201 19.9902L59.1396 20.7246L58.8623 21.5762L58.0186 21.8652L57.917 21.8496L57.5811 21.7441L57.0654 21.0137L57.3389 20.1621ZM22.3506 19.9043L22.4521 19.8887L22.8037 19.8965L23.5107 20.4434L23.4951 21.3379L22.7686 21.8652L22.6709 21.8809L22.3154 21.873L21.6084 21.3223L21.6279 20.4277L22.3506 19.9043ZM18.5032 20.3449C18.5179 20.344 18.5339 20.343 18.5498 20.3457C18.9639 20.3418 19.335 20.5957 19.4873 20.9824C19.6357 21.3691 19.5303 21.8066 19.2256 22.084C18.9443 22.3887 18.5029 22.4863 18.1201 22.334C17.7334 22.1816 17.4834 21.8066 17.4912 21.3926V20.4082L18.4222 20.3495L18.4326 20.3496C18.4257 20.3496 18.4222 20.3495 18.4222 20.3495C18.4222 20.3495 18.4421 20.3485 18.4834 20.3457C18.4896 20.3457 18.4963 20.3453 18.5032 20.3449ZM61.1631 21.0137C61.2998 20.623 61.667 20.3535 62.0811 20.3457C62.1162 20.3418 62.1475 20.3418 62.1787 20.3457C62.2175 20.3483 62.2391 20.3492 62.2426 20.3495C62.2426 20.3495 62.2413 20.3496 62.2334 20.3496L63.1748 20.4082V21.3887C63.1787 21.7949 62.9365 22.1621 62.5654 22.3223C62.1904 22.4824 61.7568 22.4004 61.4717 22.1152L61.4678 22.1113C61.1475 21.8418 61.0264 21.4082 61.1631 21.0137ZM61.1318 25.041L61.835 24.4863L62.7021 24.7168L63.0342 25.5488L63.0264 25.6504L62.9365 25.9902L62.2334 26.5488L61.3662 26.3184L61.0342 25.4863L61.042 25.3848L61.1318 25.041ZM17.6592 25.2051L18.2842 24.5684L19.1748 24.6855L19.6084 25.4707V25.4785L19.6123 25.5098V25.541L19.5771 25.8926L18.9678 26.5527L18.0771 26.459L17.6162 25.6895L17.6123 25.627V25.5527L17.6592 25.2051ZM60.7373 29.1426L61.4756 28.6348L62.3271 28.9238L62.6006 29.7715L62.585 29.877L62.4717 30.209L61.7373 30.7168L60.8896 30.4277L60.6084 29.5762L60.624 29.4746L60.7373 29.1426ZM18.0068 29.4785L18.5732 28.7871L19.4678 28.8262L19.9717 29.5684L19.9873 29.6699L19.9717 30.0215L19.4053 30.7129L18.5068 30.6777L18.0029 29.9355L17.9912 29.834L18.0068 29.4785ZM60.0459 33.2012L60.8154 32.7402L61.6436 33.084L61.8623 33.9551L61.8428 34.0527L61.7061 34.3809L60.9365 34.8379L60.1084 34.4941L59.8896 33.627L59.9092 33.5254L60.0459 33.2012ZM19.1709 32.9707L20.0654 32.9512L20.6162 33.6582L20.6357 33.7598L20.6436 34.1113L20.1201 34.8379L19.2217 34.8574L18.6748 34.1465L18.6553 34.0488L18.6475 33.6934L19.1709 32.9707ZM59.0459 37.1934L59.8467 36.7871L60.6475 37.1895L60.8115 38.0684L60.7842 38.166L60.6279 38.4824L59.8271 38.8887L59.0225 38.4902L58.8623 37.6113L58.8896 37.5098L59.0459 37.1934ZM20.0654 37.0957L20.9561 37.0215L21.5498 37.6934L21.5771 37.791L21.6084 38.1426L21.1318 38.9004L20.2373 38.9746L19.6436 38.3027L19.6162 38.2051L19.5889 37.8535L20.0654 37.0957ZM57.7529 41.0723L58.585 40.748L59.3467 41.2207L59.4248 42.1152L59.3857 42.209L59.1982 42.5059L58.3623 42.834L57.6006 42.3613L57.5303 41.4668L57.5654 41.373L57.7529 41.0723ZM21.2568 41.1543L22.1396 40.9941L22.7959 41.6035L22.8311 41.7012L22.8936 42.0488L22.4951 42.8496L21.6123 43.0098L20.9561 42.4004L20.9209 42.3027L20.8584 41.959L21.2568 41.1543ZM56.1084 44.8652L56.9561 44.584L57.6904 45.0879L57.7256 45.9863L57.6826 46.0801L57.4834 46.3691L56.6318 46.6543L55.8975 46.1465L55.8623 45.252L55.9053 45.1582L56.1084 44.8652ZM22.8271 45.0801L23.6943 44.8496L24.3936 45.4082L24.4404 45.498L24.5303 45.8379L24.1943 46.6699L23.3311 46.9004L22.6279 46.3457L22.5811 46.252L22.4912 45.9121L22.8271 45.0801ZM54.1904 48.4551L55.0693 48.2715L55.7373 48.8652L55.6631 49.7598L55.6123 49.8457L55.3779 50.1113L54.499 50.291L53.8311 49.6973L53.9053 48.8027L53.9561 48.7168L54.1904 48.4551ZM24.6865 48.8926L25.5186 48.5566L26.2842 49.0215L26.335 49.1074L26.4717 49.4316L26.2412 50.3027L25.4131 50.6348L24.6436 50.1738L24.5928 50.084L24.4561 49.7598L24.6865 48.8926ZM51.9443 51.9121L52.8311 51.7832L53.4678 52.416L53.3428 53.3027L53.2842 53.3848L53.0342 53.6348L52.1475 53.7676L51.5146 53.1348L51.6396 52.248L51.6982 52.1621L51.9443 51.9121ZM26.9756 52.4395L27.7842 52.0527L28.5771 52.4707L28.6396 52.5527L28.7881 52.8691L28.6123 53.752L27.8076 54.1348L27.0146 53.7207L26.9561 53.6348L26.7998 53.3184L26.9756 52.4395ZM49.4365 55.1309L50.3311 55.0957L50.8936 55.7871L50.6748 56.6582L50.6084 56.7363L50.335 56.959L49.4404 56.9902L48.8779 56.2949L49.0967 55.4277L49.1631 55.3496L49.4365 55.1309ZM29.5693 55.7871L30.3271 55.3105L31.1631 55.6309L31.2334 55.709L31.4209 56.0059L31.3467 56.9004L30.5928 57.377L29.7529 57.0527L29.6865 56.9785L29.499 56.6816L29.5693 55.7871ZM46.3506 58.3066L46.6475 58.1152L47.542 58.166L48.0342 58.916L47.7256 59.7598L47.6553 59.8301L47.3584 60.0215L46.4639 59.9668L45.9717 59.2207L46.2803 58.377L46.3506 58.3066ZM32.5029 58.8379L33.21 58.2832L34.0771 58.5176L34.1514 58.584L34.3701 58.8613L34.3936 59.7559L33.6904 60.3105L32.8232 60.0801L32.7451 60.0098L32.5303 59.7363L32.5029 58.8379ZM43.2607 60.9707L43.5732 60.8066L44.4561 60.9473L44.874 61.7402L44.4873 62.5527L44.4092 62.6152L44.0967 62.7754L43.21 62.6348L42.7959 61.8418L43.1787 61.0332L43.2607 60.9707ZM35.7568 61.541L36.4053 60.9238L37.2881 61.0723L37.374 61.1309L37.6162 61.3887L37.7217 62.2754L37.0771 62.8965L36.1904 62.748L36.1084 62.6895L35.8662 62.4316L35.7568 61.541ZM39.2959 63.8457C39.3936 63.3965 39.7881 63.0684 40.2529 63.0605C40.2803 63.0605 40.3115 63.0605 40.3428 63.0645C40.3447 63.0625 40.3467 63.0615 40.3467 63.0615C40.3467 63.0615 40.3486 63.0625 40.3506 63.0645C40.8193 63.0488 41.2373 63.3691 41.3467 63.8262C41.46 64.2832 41.2373 64.7559 40.8154 64.959L40.3271 65.2051L39.8779 64.9824C39.8467 64.9668 39.835 64.959 39.835 64.959C39.4209 64.7598 39.1982 64.2988 39.2959 63.8457Z" fill="black"/>
<path d="M37.8311 42.3965L52.3545 28.3965L54.4365 30.5527L37.7646 46.6309L28.3193 36.9434L30.4717 34.8496L37.8311 42.3965Z" fill="#ED1C24"/>
</svg>
