<svg width="81" height="81" viewBox="0 0 81 81" fill="none" xmlns="http://www.w3.org/2000/svg">
<g clip-path="url(#clip0_2688_26732)">
<path d="M14.3311 10.6152C12.124 10.6152 10.3311 12.4082 10.3311 14.6152V66.6152C10.3311 68.8223 12.124 70.6152 14.3311 70.6152H45.3311L44.7529 68.6152H14.3311C13.2295 68.6152 12.3311 67.7168 12.3311 66.6152V14.6152C12.3311 13.5137 13.2295 12.6152 14.3311 12.6152H66.3311C67.4326 12.6152 68.3311 13.5137 68.3311 14.6152L68.1748 44.7715L70.3311 45.6152V14.6152C70.3311 12.4082 68.5381 10.6152 66.3311 10.6152H14.3311ZM18.3311 17.6152C17.7803 17.6152 17.3311 18.0645 17.3311 18.6152C17.3311 19.166 17.7803 19.6152 18.3311 19.6152C18.8818 19.6152 19.3311 19.166 19.3311 18.6152C19.3311 18.0645 18.8818 17.6152 18.3311 17.6152ZM22.3311 17.6152C21.7803 17.6152 21.3311 18.0645 21.3311 18.6152C21.3311 19.166 21.7803 19.6152 22.3311 19.6152C22.8818 19.6152 23.3311 19.166 23.3311 18.6152C23.3311 18.0645 22.8818 17.6152 22.3311 17.6152ZM26.3311 17.6152C25.7803 17.6152 25.3311 18.0645 25.3311 18.6152C25.3311 19.166 25.7803 19.6152 26.3311 19.6152C26.8818 19.6152 27.3311 19.166 27.3311 18.6152C27.3311 18.0645 26.8818 17.6152 26.3311 17.6152ZM30.3311 17.6152C29.7803 17.6152 29.3311 18.0645 29.3311 18.6152C29.3311 19.166 29.7803 19.6152 30.3311 19.6152C30.8818 19.6152 31.3311 19.166 31.3311 18.6152C31.3311 18.0645 30.8818 17.6152 30.3311 17.6152ZM34.3311 17.6152C33.7803 17.6152 33.3311 18.0645 33.3311 18.6152C33.3311 19.166 33.7803 19.6152 34.3311 19.6152C34.8818 19.6152 35.3311 19.166 35.3311 18.6152C35.3311 18.0645 34.8818 17.6152 34.3311 17.6152ZM38.3311 17.6152C37.7803 17.6152 37.3311 18.0645 37.3311 18.6152C37.3311 19.166 37.7803 19.6152 38.3311 19.6152C38.8818 19.6152 39.3311 19.166 39.3311 18.6152C39.3311 18.0645 38.8818 17.6152 38.3311 17.6152ZM42.3311 17.6152C41.7803 17.6152 41.3311 18.0645 41.3311 18.6152C41.3311 19.166 41.7803 19.6152 42.3311 19.6152C42.8818 19.6152 43.3311 19.166 43.3311 18.6152C43.3311 18.0645 42.8818 17.6152 42.3311 17.6152ZM46.3311 17.6152C45.7803 17.6152 45.3311 18.0645 45.3311 18.6152C45.3311 19.166 45.7803 19.6152 46.3311 19.6152C46.8818 19.6152 47.3311 19.166 47.3311 18.6152C47.3311 18.0645 46.8818 17.6152 46.3311 17.6152ZM50.3311 17.6152C49.7803 17.6152 49.3311 18.0645 49.3311 18.6152C49.3311 19.166 49.7803 19.6152 50.3311 19.6152C50.8818 19.6152 51.3311 19.166 51.3311 18.6152C51.3311 18.0645 50.8818 17.6152 50.3311 17.6152ZM54.3311 17.6152C53.7803 17.6152 53.3311 18.0645 53.3311 18.6152C53.3311 19.166 53.7803 19.6152 54.3311 19.6152C54.8818 19.6152 55.3311 19.166 55.3311 18.6152C55.3311 18.0645 54.8818 17.6152 54.3311 17.6152ZM58.3311 17.6152C57.7803 17.6152 57.3311 18.0645 57.3311 18.6152C57.3311 19.166 57.7803 19.6152 58.3311 19.6152C58.8818 19.6152 59.3311 19.166 59.3311 18.6152C59.3311 18.0645 58.8818 17.6152 58.3311 17.6152ZM62.3311 17.6152C61.7803 17.6152 61.3311 18.0645 61.3311 18.6152C61.3311 19.166 61.7803 19.6152 62.3311 19.6152C62.8818 19.6152 63.3311 19.166 63.3311 18.6152C63.3311 18.0645 62.8818 17.6152 62.3311 17.6152ZM18.3311 21.6152C17.7803 21.6152 17.3311 22.0645 17.3311 22.6152C17.3311 23.166 17.7803 23.6152 18.3311 23.6152C18.8818 23.6152 19.3311 23.166 19.3311 22.6152C19.3311 22.0645 18.8818 21.6152 18.3311 21.6152ZM62.3311 21.6152C61.7803 21.6152 61.3311 22.0645 61.3311 22.6152C61.3311 23.166 61.7803 23.6152 62.3311 23.6152C62.8818 23.6152 63.3311 23.166 63.3311 22.6152C63.3311 22.0645 62.8818 21.6152 62.3311 21.6152ZM18.3311 25.6152C17.7803 25.6152 17.3311 26.0645 17.3311 26.6152C17.3311 27.166 17.7803 27.6152 18.3311 27.6152C18.8818 27.6152 19.3311 27.166 19.3311 26.6152C19.3311 26.0645 18.8818 25.6152 18.3311 25.6152ZM62.3311 25.6152C61.7803 25.6152 61.3311 26.0645 61.3311 26.6152C61.3311 27.166 61.7803 27.6152 62.3311 27.6152C62.8818 27.6152 63.3311 27.166 63.3311 26.6152C63.3311 26.0645 62.8818 25.6152 62.3311 25.6152ZM18.3311 29.6152C17.7803 29.6152 17.3311 30.0645 17.3311 30.6152C17.3311 31.166 17.7803 31.6152 18.3311 31.6152C18.8818 31.6152 19.3311 31.166 19.3311 30.6152C19.3311 30.0645 18.8818 29.6152 18.3311 29.6152ZM62.3311 29.6152C61.7803 29.6152 61.3311 30.0645 61.3311 30.6152C61.3311 31.166 61.7803 31.6152 62.3311 31.6152C62.8818 31.6152 63.3311 31.166 63.3311 30.6152C63.3311 30.0645 62.8818 29.6152 62.3311 29.6152ZM18.3311 33.6152C17.7803 33.6152 17.3311 34.0645 17.3311 34.6152C17.3311 35.166 17.7803 35.6152 18.3311 35.6152C18.8818 35.6152 19.3311 35.166 19.3311 34.6152C19.3311 34.0645 18.8818 33.6152 18.3311 33.6152ZM62.3311 33.6152C61.7803 33.6152 61.3311 34.0645 61.3311 34.6152C61.3311 35.166 61.7803 35.6152 62.3311 35.6152C62.8818 35.6152 63.3311 35.166 63.3311 34.6152C63.3311 34.0645 62.8818 33.6152 62.3311 33.6152ZM18.3311 37.6152C17.7803 37.6152 17.3311 38.0645 17.3311 38.6152C17.3311 39.166 17.7803 39.6152 18.3311 39.6152C18.8818 39.6152 19.3311 39.166 19.3311 38.6152C19.3311 38.0645 18.8818 37.6152 18.3311 37.6152ZM62.3311 37.6152C61.7803 37.6152 61.3311 38.0645 61.3311 38.6152C61.3311 39.166 61.7803 39.6152 62.3311 39.6152C62.8818 39.6152 63.3311 39.166 63.3311 38.6152C63.3311 38.0645 62.8818 37.6152 62.3311 37.6152ZM18.3311 41.6152C17.7803 41.6152 17.3311 42.0645 17.3311 42.6152C17.3311 43.166 17.7803 43.6152 18.3311 43.6152C18.8818 43.6152 19.3311 43.166 19.3311 42.6152C19.3311 42.0645 18.8818 41.6152 18.3311 41.6152ZM62.3311 41.6152C61.7803 41.6152 61.3311 42.0645 61.3311 42.6152C61.3311 43.166 61.7803 43.6152 62.3311 43.6152C62.8818 43.6152 63.3311 43.166 63.3311 42.6152C63.3311 42.0645 62.8818 41.6152 62.3311 41.6152ZM18.3311 45.6152C17.7803 45.6152 17.3311 46.0645 17.3311 46.6152C17.3311 47.166 17.7803 47.6152 18.3311 47.6152C18.8818 47.6152 19.3311 47.166 19.3311 46.6152C19.3311 46.0645 18.8818 45.6152 18.3311 45.6152ZM18.3311 49.6152C17.7803 49.6152 17.3311 50.0645 17.3311 50.6152C17.3311 51.166 17.7803 51.6152 18.3311 51.6152C18.8818 51.6152 19.3311 51.166 19.3311 50.6152C19.3311 50.0645 18.8818 49.6152 18.3311 49.6152ZM18.3311 53.6152C17.7803 53.6152 17.3311 54.0645 17.3311 54.6152C17.3311 55.166 17.7803 55.6152 18.3311 55.6152C18.8818 55.6152 19.3311 55.166 19.3311 54.6152C19.3311 54.0645 18.8818 53.6152 18.3311 53.6152ZM18.3311 57.6152C17.7803 57.6152 17.3311 58.0645 17.3311 58.6152C17.3311 59.166 17.7803 59.6152 18.3311 59.6152C18.8818 59.6152 19.3311 59.166 19.3311 58.6152C19.3311 58.0645 18.8818 57.6152 18.3311 57.6152ZM18.3311 61.6152C17.7803 61.6152 17.3311 62.0645 17.3311 62.6152C17.3311 63.166 17.7803 63.6152 18.3311 63.6152C18.8818 63.6152 19.3311 63.166 19.3311 62.6152C19.3311 62.0645 18.8818 61.6152 18.3311 61.6152ZM22.3311 61.6152C21.7803 61.6152 21.3311 62.0645 21.3311 62.6152C21.3311 63.166 21.7803 63.6152 22.3311 63.6152C22.8818 63.6152 23.3311 63.166 23.3311 62.6152C23.3311 62.0645 22.8818 61.6152 22.3311 61.6152ZM26.3311 61.6152C25.7803 61.6152 25.3311 62.0645 25.3311 62.6152C25.3311 63.166 25.7803 63.6152 26.3311 63.6152C26.8818 63.6152 27.3311 63.166 27.3311 62.6152C27.3311 62.0645 26.8818 61.6152 26.3311 61.6152ZM30.3311 61.6152C29.7803 61.6152 29.3311 62.0645 29.3311 62.6152C29.3311 63.166 29.7803 63.6152 30.3311 63.6152C30.8818 63.6152 31.3311 63.166 31.3311 62.6152C31.3311 62.0645 30.8818 61.6152 30.3311 61.6152ZM34.3311 61.6152C33.7803 61.6152 33.3311 62.0645 33.3311 62.6152C33.3311 63.166 33.7803 63.6152 34.3311 63.6152C34.8818 63.6152 35.3311 63.166 35.3311 62.6152C35.3311 62.0645 34.8818 61.6152 34.3311 61.6152ZM38.3311 61.6152C37.7803 61.6152 37.3311 62.0645 37.3311 62.6152C37.3311 63.166 37.7803 63.6152 38.3311 63.6152C38.8818 63.6152 39.3311 63.166 39.3311 62.6152C39.3311 62.0645 38.8818 61.6152 38.3311 61.6152ZM42.3311 61.6152C41.7803 61.6152 41.3311 62.0645 41.3311 62.6152C41.3311 63.166 41.7803 63.6152 42.3311 63.6152C42.8818 63.6152 43.3311 63.166 43.3311 62.6152C43.3311 62.0645 42.8818 61.6152 42.3311 61.6152Z" fill="black"/>
<path d="M52.6748 53.6777C55.5967 50.5684 59.7373 48.6152 64.3311 48.6152C73.1553 48.6152 80.3311 55.791 80.3311 64.6152H78.3311C78.3311 56.873 72.0732 50.6152 64.3311 50.6152C60.2764 50.6152 56.6475 52.3418 54.0889 55.0879L56.3311 57.3301L49.3311 58.6152L50.6162 51.6152L52.6748 53.6777Z" fill="#ED1C24"/>
<path d="M64.3311 80.6152C55.5068 80.6152 48.3311 73.4395 48.3311 64.6152H50.3311C50.3311 72.3574 56.5889 78.6152 64.3311 78.6152C68.3857 78.6152 72.0146 76.8887 74.5732 74.1426L72.3311 71.9004L79.3311 70.6152L78.0459 77.6152L75.9873 75.5527C73.0654 78.6621 68.9248 80.6152 64.3311 80.6152Z" fill="#ED1C24"/>
<rect x="32.2818" y="26.8719" width="18.6663" height="5.58132" rx="2.79066" stroke="black" stroke-width="1.8"/>
</g>
<defs>
<clipPath id="clip0_2688_26732">
<rect width="80" height="80" fill="white" transform="translate(0.331055 0.615234)"/>
</clipPath>
</defs>
</svg>
