<svg width="81" height="81" viewBox="0 0 81 81" fill="none" xmlns="http://www.w3.org/2000/svg">
<path d="M64.3311 9.61523V11.6367C60.8681 12.0197 58.7646 14.091 58.7646 17.207C58.7646 19.874 60.3679 21.7044 63.2959 22.4844L64.3311 22.7617V29.0078C62.4531 28.7388 61.2423 27.2022 61.1143 25.6152H58.3311C58.3441 28.7482 60.6561 31.2957 64.3311 31.5977V33.6152H66.3311V31.5918C70.1351 31.2308 72.3311 29.1464 72.3311 25.8184C72.3311 22.9884 70.7814 21.2539 67.4854 20.4199L66.3311 20.1484V14.2539C68.0261 14.4959 69.2791 16.1312 69.3311 17.6152H72.0752C71.9962 14.5872 69.6921 11.965 66.3311 11.627V9.61523H64.3311ZM64.3311 14.2461V19.7012C62.5301 19.2862 61.5732 18.3339 61.5732 16.9609C61.5732 15.5109 62.7211 14.3941 64.3311 14.2461ZM66.3311 23.1719C68.5141 23.6419 69.5322 24.5788 69.5322 26.1348C69.5322 27.8508 68.3621 28.9068 66.3311 29.0508V23.1719ZM42.3311 38.6152V68.6152H37.3311V48.6152H25.3311V68.6152H20.3311V55.6152H8.33105V68.6152H5.33105V70.6152H75.3311V68.6152H71.3311V38.6152H59.3311V68.6152H54.3311V38.6152H42.3311ZM44.3311 40.6152H52.3311V45.6152V51.6152V57.6152V63.6152V68.6152H44.3311V63.6152V57.6152V51.6152V45.6152V40.6152ZM44.3311 45.6152C44.3311 45.8805 44.4364 46.1348 44.6239 46.3223C44.8115 46.5099 45.0658 46.6152 45.3311 46.6152C45.5963 46.6152 45.8506 46.5099 46.0382 46.3223C46.2257 46.1348 46.3311 45.8805 46.3311 45.6152C46.3311 45.35 46.2257 45.0957 46.0382 44.9081C45.8506 44.7206 45.5963 44.6152 45.3311 44.6152C45.0658 44.6152 44.8115 44.7206 44.6239 44.9081C44.4364 45.0957 44.3311 45.35 44.3311 45.6152ZM44.3311 51.6152C44.3311 51.8805 44.4364 52.1348 44.6239 52.3223C44.8115 52.5099 45.0658 52.6152 45.3311 52.6152C45.5963 52.6152 45.8506 52.5099 46.0382 52.3223C46.2257 52.1348 46.3311 51.8805 46.3311 51.6152C46.3311 51.35 46.2257 51.0957 46.0382 50.9081C45.8506 50.7206 45.5963 50.6152 45.3311 50.6152C45.0658 50.6152 44.8115 50.7206 44.6239 50.9081C44.4364 51.0957 44.3311 51.35 44.3311 51.6152ZM44.3311 57.6152C44.3311 57.8805 44.4364 58.1348 44.6239 58.3223C44.8115 58.5099 45.0658 58.6152 45.3311 58.6152C45.5963 58.6152 45.8506 58.5099 46.0382 58.3223C46.2257 58.1348 46.3311 57.8805 46.3311 57.6152C46.3311 57.35 46.2257 57.0957 46.0382 56.9081C45.8506 56.7206 45.5963 56.6152 45.3311 56.6152C45.0658 56.6152 44.8115 56.7206 44.6239 56.9081C44.4364 57.0957 44.3311 57.35 44.3311 57.6152ZM44.3311 63.6152C44.3311 63.8804 44.4364 64.1348 44.6239 64.3223C44.8115 64.5099 45.0658 64.6152 45.3311 64.6152C45.5963 64.6152 45.8506 64.5099 46.0382 64.3223C46.2257 64.1348 46.3311 63.8804 46.3311 63.6152C46.3311 63.35 46.2257 63.0957 46.0382 62.9081C45.8506 62.7206 45.5963 62.6152 45.3311 62.6152C45.0658 62.6152 44.8115 62.7206 44.6239 62.9081C44.4364 63.0957 44.3311 63.35 44.3311 63.6152ZM52.3311 63.6152C52.3311 63.35 52.2257 63.0957 52.0382 62.9081C51.8506 62.7206 51.5963 62.6152 51.3311 62.6152C51.0658 62.6152 50.8115 62.7206 50.624 62.9081C50.4364 63.0957 50.3311 63.35 50.3311 63.6152C50.3311 63.8804 50.4364 64.1348 50.624 64.3223C50.8115 64.5099 51.0658 64.6152 51.3311 64.6152C51.5963 64.6152 51.8506 64.5099 52.0382 64.3223C52.2257 64.1348 52.3311 63.8804 52.3311 63.6152ZM52.3311 57.6152C52.3311 57.35 52.2257 57.0957 52.0382 56.9081C51.8506 56.7206 51.5963 56.6152 51.3311 56.6152C51.0658 56.6152 50.8115 56.7206 50.624 56.9081C50.4364 57.0957 50.3311 57.35 50.3311 57.6152C50.3311 57.8805 50.4364 58.1348 50.624 58.3223C50.8115 58.5099 51.0658 58.6152 51.3311 58.6152C51.5963 58.6152 51.8506 58.5099 52.0382 58.3223C52.2257 58.1348 52.3311 57.8805 52.3311 57.6152ZM52.3311 51.6152C52.3311 51.35 52.2257 51.0957 52.0382 50.9081C51.8506 50.7206 51.5963 50.6152 51.3311 50.6152C51.0658 50.6152 50.8115 50.7206 50.624 50.9081C50.4364 51.0957 50.3311 51.35 50.3311 51.6152C50.3311 51.8805 50.4364 52.1348 50.624 52.3223C50.8115 52.5099 51.0658 52.6152 51.3311 52.6152C51.5963 52.6152 51.8506 52.5099 52.0382 52.3223C52.2257 52.1348 52.3311 51.8805 52.3311 51.6152ZM52.3311 45.6152C52.3311 45.35 52.2257 45.0957 52.0382 44.9081C51.8506 44.7206 51.5963 44.6152 51.3311 44.6152C51.0658 44.6152 50.8115 44.7206 50.624 44.9081C50.4364 45.0957 50.3311 45.35 50.3311 45.6152C50.3311 45.8805 50.4364 46.1348 50.624 46.3223C50.8115 46.5099 51.0658 46.6152 51.3311 46.6152C51.5963 46.6152 51.8506 46.5099 52.0382 46.3223C52.2257 46.1348 52.3311 45.8805 52.3311 45.6152ZM61.3311 40.6152H69.3311V68.6152H61.3311V40.6152ZM48.3311 41.6152C48.0658 41.6152 47.8115 41.7206 47.6239 41.9081C47.4364 42.0957 47.3311 42.35 47.3311 42.6152C47.3311 42.8805 47.4364 43.1348 47.6239 43.3223C47.8115 43.5099 48.0658 43.6152 48.3311 43.6152C48.5963 43.6152 48.8506 43.5099 49.0382 43.3223C49.2257 43.1348 49.3311 42.8805 49.3311 42.6152C49.3311 42.35 49.2257 42.0957 49.0382 41.9081C48.8506 41.7206 48.5963 41.6152 48.3311 41.6152ZM48.3311 47.6152C48.0658 47.6152 47.8115 47.7206 47.6239 47.9081C47.4364 48.0957 47.3311 48.35 47.3311 48.6152C47.3311 48.8805 47.4364 49.1348 47.6239 49.3223C47.8115 49.5099 48.0658 49.6152 48.3311 49.6152C48.5963 49.6152 48.8506 49.5099 49.0382 49.3223C49.2257 49.1348 49.3311 48.8805 49.3311 48.6152C49.3311 48.35 49.2257 48.0957 49.0382 47.9081C48.8506 47.7206 48.5963 47.6152 48.3311 47.6152ZM27.3311 50.6152H35.3311V68.6152H27.3311V50.6152ZM48.3311 53.6152C48.0658 53.6152 47.8115 53.7206 47.6239 53.9081C47.4364 54.0957 47.3311 54.35 47.3311 54.6152C47.3311 54.8805 47.4364 55.1348 47.6239 55.3223C47.8115 55.5099 48.0658 55.6152 48.3311 55.6152C48.5963 55.6152 48.8506 55.5099 49.0382 55.3223C49.2257 55.1348 49.3311 54.8805 49.3311 54.6152C49.3311 54.35 49.2257 54.0957 49.0382 53.9081C48.8506 53.7206 48.5963 53.6152 48.3311 53.6152ZM10.3311 57.6152C10.3311 57.8805 10.4364 58.1348 10.6239 58.3223C10.8115 58.5099 11.0658 58.6152 11.3311 58.6152C11.5963 58.6152 11.8506 58.5099 12.0382 58.3223C12.2257 58.1348 12.3311 57.8805 12.3311 57.6152H16.3311C16.3311 57.8805 16.4364 58.1348 16.6239 58.3223C16.8115 58.5099 17.0658 58.6152 17.3311 58.6152C17.5963 58.6152 17.8506 58.5099 18.0382 58.3223C18.2257 58.1348 18.3311 57.8805 18.3311 57.6152V63.6152V68.6152H10.3311V63.6152V57.6152ZM10.3311 63.6152C10.3311 63.8804 10.4364 64.1348 10.6239 64.3223C10.8115 64.5099 11.0658 64.6152 11.3311 64.6152C11.5963 64.6152 11.8506 64.5099 12.0382 64.3223C12.2257 64.1348 12.3311 63.8804 12.3311 63.6152C12.3311 63.35 12.2257 63.0957 12.0382 62.9081C11.8506 62.7206 11.5963 62.6152 11.3311 62.6152C11.0658 62.6152 10.8115 62.7206 10.6239 62.9081C10.4364 63.0957 10.3311 63.35 10.3311 63.6152ZM18.3311 63.6152C18.3311 63.35 18.2257 63.0957 18.0382 62.9081C17.8506 62.7206 17.5963 62.6152 17.3311 62.6152C17.0658 62.6152 16.8115 62.7206 16.6239 62.9081C16.4364 63.0957 16.3311 63.35 16.3311 63.6152C16.3311 63.8804 16.4364 64.1348 16.6239 64.3223C16.8115 64.5099 17.0658 64.6152 17.3311 64.6152C17.5963 64.6152 17.8506 64.5099 18.0382 64.3223C18.2257 64.1348 18.3311 63.8804 18.3311 63.6152ZM14.3311 59.6152C14.0658 59.6152 13.8115 59.7206 13.6239 59.9081C13.4364 60.0957 13.3311 60.35 13.3311 60.6152C13.3311 60.8805 13.4364 61.1348 13.6239 61.3223C13.8115 61.5099 14.0658 61.6152 14.3311 61.6152C14.5963 61.6152 14.8506 61.5099 15.0382 61.3223C15.2257 61.1348 15.3311 60.8805 15.3311 60.6152C15.3311 60.35 15.2257 60.0957 15.0382 59.9081C14.8506 59.7206 14.5963 59.6152 14.3311 59.6152ZM48.3311 59.6152C48.0658 59.6152 47.8115 59.7206 47.6239 59.9081C47.4364 60.0957 47.3311 60.35 47.3311 60.6152C47.3311 60.8805 47.4364 61.1348 47.6239 61.3223C47.8115 61.5099 48.0658 61.6152 48.3311 61.6152C48.5963 61.6152 48.8506 61.5099 49.0382 61.3223C49.2257 61.1348 49.3311 60.8805 49.3311 60.6152C49.3311 60.35 49.2257 60.0957 49.0382 59.9081C48.8506 59.7206 48.5963 59.6152 48.3311 59.6152ZM14.3311 65.6152C14.0658 65.6152 13.8115 65.7206 13.6239 65.9081C13.4364 66.0957 13.3311 66.35 13.3311 66.6152C13.3311 66.8804 13.4364 67.1348 13.6239 67.3223C13.8115 67.5099 14.0658 67.6152 14.3311 67.6152C14.5963 67.6152 14.8506 67.5099 15.0382 67.3223C15.2257 67.1348 15.3311 66.8804 15.3311 66.6152C15.3311 66.35 15.2257 66.0957 15.0382 65.9081C14.8506 65.7206 14.5963 65.6152 14.3311 65.6152ZM48.3311 65.6152C48.0658 65.6152 47.8115 65.7206 47.6239 65.9081C47.4364 66.0957 47.3311 66.35 47.3311 66.6152C47.3311 66.8804 47.4364 67.1348 47.6239 67.3223C47.8115 67.5099 48.0658 67.6152 48.3311 67.6152C48.5963 67.6152 48.8506 67.5099 49.0382 67.3223C49.2257 67.1348 49.3311 66.8804 49.3311 66.6152C49.3311 66.35 49.2257 66.0957 49.0382 65.9081C48.8506 65.7206 48.5963 65.6152 48.3311 65.6152Z" fill="black"/>
<path d="M39.3037 18.6024L49.6064 13.9598L51.4131 23.286L51.8154 25.3602L46.3936 22.4325C38.6257 36.3483 20.817 45.6686 8.72168 47.6844L8.39355 45.7118C19.7909 43.8122 37.2958 34.5583 44.6318 21.4813L39.3037 18.6024Z" fill="#ED1C24"/>
</svg>
