<svg width="21" height="21" viewBox="0 0 21 21" fill="none" xmlns="http://www.w3.org/2000/svg">
<path d="M10.3722 1.65918C7.42684 1.65918 5.03884 4.04718 5.03884 6.99251C5.03884 10.9925 9.7055 12.3258 9.7055 14.9925C9.7055 15.3605 10.0042 15.6592 10.3722 15.6592C10.7402 15.6592 11.0388 15.3605 11.0388 14.9925C11.0388 12.3258 15.7055 10.9925 15.7055 6.99251C15.7055 4.04718 13.3175 1.65918 10.3722 1.65918ZM10.3722 5.65918C11.1088 5.65918 11.7055 6.25585 11.7055 6.99251C11.7055 7.72918 11.1088 8.32585 10.3722 8.32585C9.6355 8.32585 9.03884 7.72918 9.03884 6.99251C9.03884 6.25585 9.6355 5.65918 10.3722 5.65918ZM4.37217 11.6592C4.09417 11.6592 3.84517 11.8321 3.74717 12.0915L1.74717 17.4248C1.6705 17.6301 1.69999 17.8581 1.82399 18.0381C1.94933 18.2181 2.1535 18.3258 2.37217 18.3258H18.3722C18.5908 18.3258 18.7957 18.2181 18.9203 18.0381C19.045 17.8588 19.0738 17.6301 18.9972 17.4248L16.9972 12.0915C16.8992 11.8321 16.6502 11.6592 16.3722 11.6592H15.0545C14.6891 12.0672 14.3121 12.44 13.9568 12.7907C13.8868 12.8587 13.8197 12.9258 13.7524 12.9925H15.9099L17.4099 16.9925H3.33441L4.83441 12.9925H6.99196C6.92463 12.9258 6.85817 12.8587 6.78884 12.7907C6.43284 12.44 6.05521 12.0672 5.68988 11.6592H4.37217Z" fill="#ED1C24"/>
</svg>
