<svg width="41" height="41" viewBox="0 0 41 41" fill="none" xmlns="http://www.w3.org/2000/svg">
<path d="M20.1879 38.7261C30.3348 38.7261 38.5879 30.4729 38.5879 20.3261C38.5879 10.1792 30.3348 1.92607 20.1879 1.92607C10.041 1.92607 1.78789 10.1792 1.78789 20.3261C1.78789 30.4729 10.041 38.7261 20.1879 38.7261ZM17.2223 12.8917C16.9098 12.5792 16.9098 12.0729 17.2223 11.7604C17.3785 11.6042 17.5816 11.5261 17.7879 11.5261C17.9941 11.5261 18.1973 11.6042 18.3535 11.7604L26.3535 19.7604C26.666 20.0729 26.666 20.5792 26.3535 20.8917L18.3535 28.8917C18.041 29.2042 17.5348 29.2042 17.2223 28.8917C16.9098 28.5792 16.9098 28.0729 17.2223 27.7604L24.6566 20.3261L17.2223 12.8917Z" fill="#ED1C24"/>
</svg>
