<svg width="12" height="12" viewBox="0 0 12 12" fill="none" xmlns="http://www.w3.org/2000/svg">
<path d="M0 0V0.922523H1.83075C2.02741 0.922523 2.19547 1.05225 2.25983 1.23964L3.11442 8.92613C3.19309 9.62162 3.78665 10.155 4.48033 10.155H10.0691V9.23243H4.48033C4.24434 9.23243 4.05125 9.05946 4.02622 8.82523L3.96901 8.30991H9.77592C10.4267 8.30991 10.9952 7.84144 11.124 7.2L12 2.77477H3.35042L3.15375 1.01622L3.13945 0.972973C2.96424 0.396396 2.43147 0.00360337 1.83075 0H0ZM9.15376 10.155C8.64958 10.155 8.23838 10.5694 8.23838 11.0775C8.23838 11.5856 8.64958 12 9.15376 12C9.65793 12 10.0691 11.5856 10.0691 11.0775C10.0691 10.5694 9.65793 10.155 9.15376 10.155ZM4.57688 10.155C4.07271 10.155 3.6615 10.5694 3.6615 11.0775C3.6615 11.5856 4.07271 12 4.57688 12C5.08105 12 5.49225 11.5856 5.49225 11.0775C5.49225 10.5694 5.08105 10.155 4.57688 10.155ZM3.45411 3.6973H10.8844L10.2265 7.01622C10.18 7.23604 9.99762 7.38739 9.77592 7.38739H3.86532L3.45411 3.6973Z" fill="#039855" fill-opacity="0.9"/>
</svg>
