<svg width="21" height="21" viewBox="0 0 21 21" fill="none" xmlns="http://www.w3.org/2000/svg">
<path d="M10.3721 2.32568C5.96169 2.32568 2.37207 5.9153 2.37207 10.3257C2.37207 14.7361 5.96169 18.3257 10.3721 18.3257C14.7825 18.3257 18.3721 14.7361 18.3721 10.3257C18.3721 5.9153 14.7825 2.32568 10.3721 2.32568ZM9.70671 3.69157C9.71506 3.86245 9.78879 4.02358 9.91264 4.14162C10.0365 4.25965 10.201 4.32555 10.3721 4.32568C10.5432 4.32555 10.7076 4.25965 10.8315 4.14162C10.9553 4.02358 11.0291 3.86245 11.0374 3.69157C14.1938 4.00282 16.6949 6.50398 17.0062 9.66032C16.8353 9.66867 16.6742 9.7424 16.5561 9.86626C16.4381 9.99011 16.3722 10.1546 16.3721 10.3257C16.3722 10.4968 16.4381 10.6613 16.5561 10.7851C16.6742 10.909 16.8353 10.9827 17.0062 10.991C16.6949 14.1474 14.1938 16.6485 11.0374 16.9598C11.0291 16.7889 10.9553 16.6278 10.8315 16.5097C10.7076 16.3917 10.5432 16.3258 10.3721 16.3257C10.201 16.3258 10.0365 16.3917 9.91264 16.5097C9.78879 16.6278 9.71506 16.7889 9.70671 16.9598C6.55037 16.6485 4.0492 14.1474 3.73796 10.991C3.90884 10.9827 4.06997 10.909 4.18801 10.7851C4.30604 10.6613 4.37194 10.4968 4.37207 10.3257C4.37194 10.1546 4.30604 9.99011 4.18801 9.86626C4.06997 9.7424 3.90884 9.66867 3.73796 9.66032C4.0492 6.50398 6.55037 4.00282 9.70671 3.69157ZM10.3721 4.99235C7.42674 4.99235 5.03874 7.38035 5.03874 10.3257C5.03874 13.271 7.42674 15.659 10.3721 15.659C13.3174 15.659 15.7054 13.271 15.7054 10.3257C15.7054 7.38035 13.3174 4.99235 10.3721 4.99235ZM10.3721 6.32568C10.7407 6.32568 11.0387 6.62435 11.0387 6.99235V10.0496L12.8434 11.8543C13.1041 12.115 13.1041 12.5364 12.8434 12.797C12.7134 12.927 12.5427 12.9924 12.3721 12.9924C12.2014 12.9924 12.0307 12.927 11.9007 12.797L9.7054 10.6017V6.99235C9.7054 6.62435 10.0034 6.32568 10.3721 6.32568Z" fill="#ED1C24"/>
</svg>
