<svg width="226" height="158" viewBox="0 0 226 158" fill="none" xmlns="http://www.w3.org/2000/svg">
<path opacity="0.45" d="M115.746 144.116C163.429 144.116 202.083 141.733 202.083 138.793C202.083 135.853 163.429 133.47 115.746 133.47C68.0629 133.47 29.4082 135.853 29.4082 138.793C29.4082 141.733 68.0629 144.116 115.746 144.116Z" fill="#9A9A9A"/>
<path opacity="0.58" d="M185.884 130.132C185.884 130.132 180.421 128.643 179.229 123.563C179.229 123.563 187.704 121.871 187.941 130.577L185.884 130.132Z" fill="#68FD80"/>
<path opacity="0.73" d="M186.535 129.59C186.535 129.59 182.716 123.563 186.077 117.929C186.077 117.929 192.518 122.012 189.654 129.602L186.535 129.59Z" fill="#68FD80"/>
<path d="M187.518 129.596C187.518 129.596 189.535 123.23 195.637 122.029C195.637 122.029 196.767 126.156 191.682 129.613L187.518 129.596Z" fill="#68FD80"/>
<path d="M183.557 129.449L184.658 137.017L191.642 137.045L192.67 129.489L183.557 129.449Z" fill="#FBB039"/>
<path d="M102.033 101.605L95.8184 133.938H126.136L119.921 101.605H102.033Z" fill="#C9C9C9"/>
<path d="M130.092 130.741H91.6719V137.265H130.092V130.741Z" fill="#E6E6E6"/>
<path d="M171.793 33.0922H53.4258V109.973H171.793V33.0922Z" fill="#E6E6E6"/>
<path d="M171.793 33.0922H53.4258V101.137H171.793V33.0922Z" fill="white"/>
<path d="M62.517 35.3026C63.8931 35.3026 65.0087 34.1892 65.0087 32.8159C65.0087 31.4425 63.8931 30.3291 62.517 30.3291C61.1409 30.3291 60.0254 31.4425 60.0254 32.8159C60.0254 34.1892 61.1409 35.3026 62.517 35.3026Z" fill="#24285B"/>
<path d="M69.9252 35.3026C71.3013 35.3026 72.4169 34.1892 72.4169 32.8159C72.4169 31.4425 71.3013 30.3291 69.9252 30.3291C68.5491 30.3291 67.4336 31.4425 67.4336 32.8159C67.4336 34.1892 68.5491 35.3026 69.9252 35.3026Z" fill="#68E1FD"/>
<path d="M76.9018 35.3026C78.2779 35.3026 79.3935 34.1892 79.3935 32.8159C79.3935 31.4425 78.2779 30.3291 76.9018 30.3291C75.5257 30.3291 74.4102 31.4425 74.4102 32.8159C74.4102 34.1892 75.5257 35.3026 76.9018 35.3026Z" fill="#FFD200"/>
<path d="M49.1777 138.472L54.3701 115.29H71.6817L66.6362 138.472H49.1777Z" fill="#FFD200"/>
<path d="M71.6822 115.29L76.8745 138.472H66.6367L71.6822 115.29Z" fill="#FFD200"/>
<path opacity="0.09" d="M71.6822 115.29L76.8745 138.472H66.6367L71.6822 115.29Z" fill="#191819"/>
<path opacity="0.08" d="M53.4258 47.4826V54.8526H171.793V41.4321L121.881 33.5715L66.6355 40.0618L58.1605 41.7535L53.5049 46.7665L53.4258 47.4826Z" fill="#191819"/>
<path opacity="0.5" d="M56.5331 119.322L54.3691 128.97H65.4092L67.2794 119.322H56.5331Z" fill="white"/>
<path d="M171.631 24.2842H112.537H112.04H52.9467L42.7598 42.1313H112.04H112.537H181.818L171.631 24.2842Z" fill="#FBB039"/>
<path d="M58.1602 42.137H73.5621V42.199C73.5621 44.212 72.7608 46.1425 71.3346 47.5659C69.9084 48.9893 67.9741 49.7889 65.9572 49.7889H65.7651C63.7481 49.7889 61.8138 48.9893 60.3876 47.5659C58.9614 46.1425 58.1602 44.212 58.1602 42.199V42.137Z" fill="#FBB039"/>
<path d="M89.1855 42.137H104.587V42.199C104.587 44.212 103.786 46.1425 102.36 47.5659C100.934 48.9893 98.9995 49.7889 96.9825 49.7889H96.7904C94.7735 49.7889 92.8392 48.9893 91.413 47.5659C89.9868 46.1425 89.1855 44.212 89.1855 42.199V42.137Z" fill="#FBB039"/>
<path d="M119.988 42.137H135.39V42.199C135.39 44.212 134.589 46.1425 133.163 47.5659C131.737 48.9893 129.802 49.7889 127.785 49.7889H127.593C125.576 49.7889 123.642 48.9893 122.216 47.5659C120.79 46.1425 119.988 44.212 119.988 42.199V42.137Z" fill="#FBB039"/>
<path d="M151.014 42.137H166.416V42.199C166.416 44.212 165.614 46.1425 164.188 47.5659C162.762 48.9893 160.828 49.7889 158.811 49.7889H158.619C156.602 49.7889 154.667 48.9893 153.241 47.5659C151.815 46.1425 151.014 44.212 151.014 42.199V42.137Z" fill="#FBB039"/>
<path d="M104.588 42.137V42.199C104.588 44.212 105.389 46.1425 106.815 47.5659C108.242 48.9893 110.176 49.7889 112.193 49.7889H112.385C114.402 49.7889 116.336 48.9893 117.762 47.5659C119.189 46.1425 119.99 44.212 119.99 42.199V24.2842H104.588V42.137Z" fill="#68E1FD"/>
<path d="M73.7832 42.137V42.199C73.7832 44.212 74.5844 46.1425 76.0106 47.5659C77.4368 48.9893 79.3712 49.7889 81.3881 49.7889H81.5802C83.5971 49.7889 85.5315 48.9893 86.9577 47.5659C88.3839 46.1425 89.1851 44.212 89.1851 42.199V42.137L91.0157 24.2842H77.4557L73.7832 42.137Z" fill="#68E1FD"/>
<path d="M42.7598 42.137V42.199C42.7598 43.1957 42.9565 44.1827 43.3387 45.1035C43.7208 46.0244 44.281 46.8611 44.9872 47.5659C45.6934 48.2707 46.5317 48.8298 47.4544 49.2112C48.3771 49.5926 49.366 49.7889 50.3647 49.7889H50.5568C52.5737 49.7889 54.508 48.9893 55.9342 47.5659C57.3604 46.1425 58.1617 44.212 58.1617 42.199V42.137L65.0038 24.2842H52.9467L42.7598 42.137Z" fill="#68E1FD"/>
<path d="M147.126 24.2842H133.566L135.391 42.137H135.6V42.199C135.6 44.212 136.402 46.1425 137.828 47.5659C139.254 48.9893 141.188 49.7889 143.205 49.7889H143.397C145.414 49.7889 147.349 48.9893 148.775 47.5659C150.201 46.1425 151.002 44.212 151.002 42.199V42.137H150.782L147.126 24.2842Z" fill="#68E1FD"/>
<path d="M171.629 24.2842H159.572L166.414 42.137V42.199C166.414 43.1957 166.611 44.1827 166.993 45.1035C167.375 46.0244 167.936 46.8611 168.642 47.5659C169.348 48.2707 170.186 48.8298 171.109 49.2112C172.032 49.5926 173.021 49.7889 174.019 49.7889H174.211C175.21 49.7889 176.199 49.5926 177.122 49.2112C178.044 48.8298 178.883 48.2707 179.589 47.5659C180.295 46.8611 180.855 46.0244 181.237 45.1035C181.62 44.1827 181.816 43.1957 181.816 42.199V42.137L171.629 24.2842Z" fill="#68E1FD"/>
<path d="M104.588 42.137V42.199C104.588 44.212 105.389 46.1425 106.815 47.5659C108.242 48.9893 110.176 49.7889 112.193 49.7889H112.385C114.402 49.7889 116.336 48.9893 117.762 47.5659C119.189 46.1425 119.99 44.212 119.99 42.199V24.2842H104.588V42.137Z" fill="white"/>
<path d="M73.7832 42.137V42.199C73.7832 44.212 74.5844 46.1425 76.0106 47.5659C77.4368 48.9893 79.3712 49.7889 81.3881 49.7889H81.5802C83.5971 49.7889 85.5315 48.9893 86.9577 47.5659C88.3839 46.1425 89.1851 44.212 89.1851 42.199V42.137L91.0157 24.2842H77.4557L73.7832 42.137Z" fill="white"/>
<path d="M42.7598 42.137V42.199C42.7598 43.1957 42.9565 44.1827 43.3387 45.1035C43.7208 46.0244 44.281 46.8611 44.9872 47.5659C45.6934 48.2707 46.5317 48.8298 47.4544 49.2112C48.3771 49.5926 49.366 49.7889 50.3647 49.7889H50.5568C52.5737 49.7889 54.508 48.9893 55.9342 47.5659C57.3604 46.1425 58.1617 44.212 58.1617 42.199V42.137L65.0038 24.2842H52.9467L42.7598 42.137Z" fill="white"/>
<path d="M147.126 24.2842H133.566L135.391 42.137H135.6V42.199C135.6 44.212 136.402 46.1425 137.828 47.5659C139.254 48.9893 141.188 49.7889 143.205 49.7889H143.397C145.414 49.7889 147.349 48.9893 148.775 47.5659C150.201 46.1425 151.002 44.212 151.002 42.199V42.137H150.782L147.126 24.2842Z" fill="white"/>
<path d="M171.631 24.2842H159.574L166.416 42.137V42.199C166.416 43.1957 166.613 44.1827 166.995 45.1035C167.377 46.0244 167.938 46.8611 168.644 47.5659C169.35 48.2707 170.188 48.8298 171.111 49.2112C172.034 49.5926 173.023 49.7889 174.021 49.7889H174.213C175.212 49.7889 176.201 49.5926 177.124 49.2112C178.046 48.8298 178.885 48.2707 179.591 47.5659C180.297 46.8611 180.857 46.0244 181.239 45.1035C181.622 44.1827 181.818 43.1957 181.818 42.199V42.137L171.631 24.2842Z" fill="white"/>
<path d="M171.793 17.6811H52.9453V24.2842H171.793V17.6811Z" fill="#FBB039"/>
<path d="M141.357 65.5834H84.377V90.293H141.357V65.5834Z" fill="#808080"/>
<path d="M104.587 70.0043H89.1855V85.3759H104.587V70.0043Z" fill="white"/>
<path d="M99.1353 73.196C98.5919 73.1567 98.0458 73.1814 97.5081 73.2693C97.0382 73.3425 96.5598 73.3425 96.09 73.2693C95.5542 73.1813 95.0099 73.1567 94.4684 73.196C94.1397 73.2204 93.8196 73.3121 93.528 73.4654C93.2364 73.6187 92.9795 73.8302 92.7734 74.0869L91.0332 76.2297L92.7282 77.6563L93.8017 76.3368V80.8479H99.802V76.3368L100.876 77.6563L102.571 76.2297L100.83 74.0869C100.624 73.8307 100.367 73.6196 100.075 73.4663C99.7837 73.3131 99.4638 73.2211 99.1353 73.196Z" fill="#FBB039"/>
<path opacity="0.09" d="M95.5929 73.2072C95.5929 73.2072 95.2652 75.0342 96.6947 75.0173C98.1241 75.0004 97.8529 73.2241 97.8529 73.2241C97.102 73.3151 96.3424 73.3094 95.5929 73.2072Z" fill="#191819"/>
<path d="M141.188 73.1565C144.389 73.1565 146.984 70.5662 146.984 67.371C146.984 64.1757 144.389 61.5855 141.188 61.5855C137.986 61.5855 135.391 64.1757 135.391 67.371C135.391 70.5662 137.986 73.1565 141.188 73.1565Z" fill="#FBB039"/>
<path d="M130.098 72.6772H109.385V76.2297H130.098V72.6772Z" fill="white"/>
<path opacity="0.28" d="M130.098 79.0547H109.385V82.6072H130.098V79.0547Z" fill="white"/>
<path opacity="0.3" d="M79.3885 63.1136H58.9863V96.6086H79.3885V63.1136Z" fill="#C9C9C9"/>
<path d="M169.393 66.3391H163.721V89.4698H169.393V66.3391Z" fill="#C9C9C9"/>
</svg>
