<svg width="63" height="63" viewBox="0 0 63 63" fill="none" xmlns="http://www.w3.org/2000/svg">
<g clip-path="url(#clip0_807_7777)">
<path d="M31.5627 4.0459C24.0441 4.0459 17.9227 10.1673 17.9227 17.6859C17.9227 25.2045 24.0441 31.3259 31.5627 31.3259C39.0814 31.3259 45.2027 25.2045 45.2027 17.6859C45.2027 10.1673 39.0814 4.0459 31.5627 4.0459ZM31.5627 6.5259C37.7412 6.5259 42.7227 11.5075 42.7227 17.6859C42.7227 23.8643 37.7412 28.8459 31.5627 28.8459C25.3843 28.8459 20.4027 23.8643 20.4027 17.6859C20.4027 11.5075 25.3843 6.5259 31.5627 6.5259ZM31.5627 10.2459C31.156 12.1257 30.0127 13.048 27.2227 13.048V14.5859H30.9427V25.1259H32.8027V10.2459H31.5627ZM17.2591 31.3259C13.7414 31.3259 12.1439 32.1776 10.3834 32.8735H10.381C7.02458 34.2035 1.26509 36.9737 1.26509 36.9737C1.1181 37.0443 0.986459 37.1431 0.87768 37.2646C0.768901 37.3861 0.685116 37.5278 0.631109 37.6816C0.577102 37.8354 0.553933 37.9984 0.562924 38.1612C0.571915 38.324 0.61289 38.4835 0.683509 38.6304C0.754129 38.7774 0.853008 38.909 0.974501 39.0178C1.09599 39.1265 1.23772 39.2102 1.39158 39.2642C1.54544 39.3182 1.70843 39.3413 1.87123 39.3322C2.03403 39.3232 2.19345 39.2822 2.3404 39.2115C2.3404 39.2115 8.13507 36.4311 11.2941 35.1791C13.2288 34.4143 14.1032 33.8059 17.2591 33.8059C24.2238 33.8059 24.0354 36.9326 26.8885 38.6448H26.8909C27.8598 39.2258 29.4697 39.6794 31.1583 40.1197C31.3796 40.2898 31.6518 40.3802 31.9309 40.3764C33.9632 40.8676 36.1158 41.2459 37.7627 41.2459C39.212 41.2459 40.2359 41.5238 40.7804 41.8659C41.3249 42.208 41.4827 42.4902 41.4827 43.1059C41.4827 43.8277 41.3166 44.0742 40.7731 44.3968C40.2296 44.7193 39.1894 44.9659 37.7627 44.9659H30.5698C27.5334 44.9659 23.2242 43.7743 23.2242 43.7743C23.0661 43.7237 22.8993 43.7053 22.7339 43.7203C22.5685 43.7353 22.4078 43.7833 22.2613 43.8616C22.1148 43.9399 21.9856 44.0468 21.8812 44.176C21.7768 44.3052 21.6995 44.454 21.6537 44.6137C21.608 44.7733 21.5947 44.9406 21.6148 45.1054C21.6349 45.2703 21.688 45.4294 21.7707 45.5734C21.8535 45.7174 21.9644 45.8433 22.0967 45.9436C22.2291 46.044 22.3803 46.1167 22.5413 46.1575C22.5413 46.1575 26.9201 47.4459 30.5698 47.4459H37.7627C39.441 47.4459 40.8795 47.2191 42.0398 46.5304C42.3306 46.3578 42.5046 46.0533 42.7397 45.8111C42.9143 45.7805 43.0803 45.7128 43.2265 45.6125L54.3768 38.112H54.3792C56.3129 36.9649 57.6465 36.6389 58.4407 36.654C59.2352 36.6692 59.536 36.9208 59.7897 37.2522C60.1574 37.7332 60.1862 37.9883 59.9471 38.5552C59.708 39.122 59.0245 39.9401 57.828 40.7882C56.3391 41.8446 39.9547 52.7278 38.0291 53.8421C36.6042 54.6679 35.4554 55.5471 34.142 55.92C32.8291 56.2928 31.276 56.2886 28.7364 55.053H28.734C27.0378 54.2267 19.8728 50.4848 17.5474 49.2841C16.2623 48.6199 15.1789 48.253 14.072 48.3154C12.965 48.3777 12.0276 48.8606 11.0422 49.49C11.039 49.4924 11.0357 49.4948 11.0325 49.4972L7.6879 51.6793C7.54941 51.7673 7.42975 51.8819 7.33586 52.0164C7.24196 52.1509 7.1757 52.3028 7.1409 52.4631C7.1061 52.6234 7.10346 52.7891 7.13313 52.9504C7.1628 53.1118 7.22419 53.2656 7.31375 53.4031C7.40331 53.5406 7.51925 53.6589 7.65486 53.7512C7.79047 53.8436 7.94306 53.9081 8.10378 53.941C8.2645 53.974 8.43016 53.9747 8.59116 53.9431C8.75216 53.9116 8.90531 53.8484 9.04173 53.7573L12.3888 51.5752C13.2431 51.0309 13.7485 50.8191 14.2124 50.7929C14.6794 50.7666 15.3022 50.9159 16.4091 51.488C18.7134 52.6778 25.7848 56.3731 27.649 57.2811C30.5775 58.7065 32.9325 58.8416 34.8202 58.3056C36.7079 57.7696 38.0541 56.6935 39.2716 55.9879C41.8546 54.4931 57.3951 44.1348 59.2617 42.8104V42.8129C60.6841 41.8047 61.7121 40.749 62.2309 39.5191C62.7498 38.2892 62.5826 36.8235 61.7587 35.7458C61.1109 34.8993 59.9536 34.202 58.4867 34.174C57.4493 34.1543 56.2083 34.5464 54.8418 35.1597C54.7901 34.9117 54.9107 34.638 54.8006 34.3993C54.3791 33.4848 53.4396 32.8405 52.3836 32.6313H52.3812C50.9959 32.3574 49.4271 32.7842 47.8741 33.4983C47.7635 33.1617 47.6792 32.8087 47.4551 32.5417C46.7901 31.7491 45.8336 31.4676 44.9436 31.3986C43.1637 31.2606 41.3122 31.8417 39.9739 32.6386C38.1047 33.7509 32.5561 37.2663 31.8098 37.739C30.2151 37.3009 28.5938 36.7732 28.1649 36.516V36.5184C27.0302 35.8373 25.0778 31.3259 17.2591 31.3259ZM44.7523 33.8713C45.2478 33.9097 45.4849 34.053 45.5539 34.1353C45.5968 34.1864 45.5672 34.5073 45.5684 34.7359L39.4823 38.933C38.9321 38.8528 38.3878 38.7659 37.7627 38.7659C37.2083 38.7659 36.2201 38.5222 35.4184 38.4075C37.5652 37.0531 39.9935 35.5095 41.2406 34.7674C42.0723 34.2721 43.7611 33.7945 44.7523 33.8713ZM51.0879 35.0435C51.4108 35.0133 51.6892 35.0208 51.9016 35.0629C52.4168 35.1649 52.4664 35.2606 52.5483 35.4382C52.6048 35.5609 52.5671 35.9828 52.5386 36.361L43.7424 42.2752C43.5308 41.3636 43.066 40.5561 42.3134 39.9938L47.4817 36.4312C47.5049 36.415 47.5275 36.3981 47.5495 36.3804C48.7489 35.5603 50.1191 35.1341 51.0879 35.0435Z" fill="#ED1C24"/>
</g>
<defs>
<clipPath id="clip0_807_7777">
<rect width="62" height="62" fill="white" transform="translate(0.5625 0.325684)"/>
</clipPath>
</defs>
</svg>
