<svg width="194" height="42" viewBox="0 0 194 42" fill="none" xmlns="http://www.w3.org/2000/svg">
<path d="M106.097 34.1883H107.375C107.458 34.8516 107.53 35.4304 107.616 36.1263H106.572C72.7679 36.1263 38.9623 36.1263 5.15664 36.1249C2.31401 36.1249 0.502202 34.2985 0.501738 31.4284C0.499421 22.6725 0.499421 13.9152 0.501738 5.15878C0.501738 2.21867 2.27276 0.416052 5.19279 0.415118C17.6173 0.409517 30.0427 0.412785 42.4672 0.412785C91.0992 0.412785 139.732 0.413251 188.363 0.40625C189.513 0.40625 190.618 0.4926 191.577 1.20021C192.693 2.0217 193.377 3.10831 193.379 4.51979C193.39 13.6935 193.4 22.8666 193.373 32.0398C193.366 34.2275 191.523 36.0134 189.318 36.1235C189.111 36.1338 188.903 36.1263 188.695 36.1263H118.391C118.468 35.4192 118.528 34.8628 118.599 34.1883H187.915C188.181 34.1883 188.448 34.1911 188.715 34.1879" fill="white"/>
<path d="M118.391 36.1263C118.468 35.4196 118.527 34.8628 118.599 34.1883H187.914C188.181 34.1883 188.448 34.1916 188.715 34.1879C190.505 34.1599 191.445 33.2142 191.446 31.4116C191.449 23.1616 191.448 14.9108 191.448 6.66127C191.448 6.0951 191.455 5.52985 191.446 4.96321C191.42 3.32442 190.471 2.39184 188.819 2.37224C188.643 2.37037 188.464 2.37224 188.287 2.37224H5.64945C3.25502 2.37224 2.47357 3.16246 2.47357 5.58586V30.8725C2.47357 33.4032 3.24853 34.1883 5.74817 34.1883H107.375C107.457 34.8516 107.53 35.4304 107.616 36.1263H106.572C72.7675 36.1263 38.9624 36.1263 5.15722 36.1249C2.31366 36.1249 0.502781 34.2985 0.50139 31.4289C0.499537 22.6725 0.499537 13.9156 0.50139 5.15878C0.50139 2.21914 2.27241 0.416519 5.1929 0.415118C17.6174 0.409984 30.0424 0.412785 42.4669 0.412785C91.0993 0.412785 139.732 0.413251 188.363 0.40625C189.512 0.40625 190.617 0.4926 191.577 1.20021C192.693 2.0217 193.376 3.10831 193.379 4.51979C193.39 13.6939 193.4 22.8666 193.372 32.0398C193.366 34.2285 191.523 36.0138 189.318 36.1235C189.111 36.1342 188.903 36.1263 188.695 36.1263H118.391Z" fill="#ED1C24"/>
<path d="M104.207 23.28C103.684 24.2635 103.871 25.1121 104.291 25.8766C105.06 27.2802 105.931 28.63 106.732 30.0182C107.046 30.5652 107.284 31.1561 107.631 31.8791C107.272 31.8213 107.107 31.8418 107.007 31.7718C104.021 29.6513 101.447 27.1756 100.569 23.4448C100.259 22.1267 100.379 20.7091 100.104 19.3779C99.796 17.8853 99.2621 16.4378 98.8278 14.9708L98.59 15.031V20.5859C97.9763 19.9385 97.3905 19.426 96.9325 18.8169C95.0938 16.373 94.14 13.5276 93.4044 10.6052C93.0016 9.00238 92.7286 7.36546 92.3467 5.49609C93.4744 5.722 94.4046 5.83403 95.2899 6.09868C99.9151 7.48028 103.12 10.6491 105.651 14.6011C106.559 16.021 107.316 17.5385 108.229 19.1656C109.817 16.225 111.344 13.3969 112.963 10.4013C114.554 13.3479 116.078 16.1709 117.698 19.1712C117.991 18.6559 118.231 18.2713 118.435 17.868C119.686 15.3909 121.098 13.0258 123.016 10.9978C125.612 8.25137 128.633 6.26811 132.436 5.68653C132.776 5.63425 133.123 5.63425 133.479 5.60905C133.159 9.89716 130.844 18.2965 127.433 20.3987V14.8093C126.493 16.5858 125.959 18.4034 125.718 20.3091C125.596 21.2809 125.619 22.2732 125.474 23.2404C125.224 24.8988 124.479 26.3761 123.395 27.6167C122.289 28.8863 121.039 30.0336 119.82 31.2005C119.494 31.5123 119.054 31.7004 118.666 31.9454L118.444 31.7727C118.632 31.3321 118.775 30.8644 119.014 30.4555C119.781 29.1495 120.635 27.8935 121.351 26.5609C121.721 25.871 121.913 25.0729 122.096 24.3027C122.162 24.0273 121.965 23.6889 121.857 23.2516C119.527 24.5249 118.207 26.3406 117.886 28.8793C117.428 32.5074 116.948 36.1327 116.518 39.765C116.402 40.7405 115.893 41.2418 114.981 41.281C113.681 41.3352 112.373 41.3562 111.075 41.2834C109.915 41.2185 109.587 40.7951 109.423 39.4789C108.99 35.9973 108.552 32.5163 108.136 29.0333C107.827 26.4512 106.53 24.572 104.207 23.28Z" fill="#ED1C24"/>
<path d="M38.2187 22.1507H43.1248C42.322 20.3387 41.5582 18.6122 40.7142 16.7045C39.8317 18.6304 39.0479 20.3406 38.2187 22.1507ZM14.8673 22.1731H19.7952C18.9961 20.3649 18.2295 18.6295 17.3799 16.705C16.4946 18.6313 15.708 20.3434 14.8673 22.1731ZM52.6089 27.9245C50.3841 27.9245 48.3197 27.9436 46.2562 27.8983C46.0212 27.8932 45.7468 27.5576 45.5693 27.3168C43.7014 24.7627 41.104 23.3157 38.1432 22.2641C37.2741 23.9332 36.4185 25.5235 35.6203 27.1431C35.3367 27.7163 35.0118 27.9525 34.3416 27.9455C30.666 27.9072 26.9896 27.9175 23.3131 27.9389C22.8148 27.9413 22.533 27.7793 22.2438 27.3714C20.4139 24.7939 17.8183 23.3264 14.8103 22.2683C14.0566 23.7134 13.2557 25.0955 12.6059 26.5466C12.1387 27.5884 11.5709 28.071 10.3496 27.9627C8.7352 27.8199 7.09998 27.9277 5.29883 27.9277C9.33589 21.0622 13.3025 14.318 17.3618 7.41699C21.232 14.0767 25.0415 20.6337 28.9548 27.3667C32.8792 20.7005 36.7374 14.1481 40.6975 7.42073C44.6887 14.29 48.6103 21.0407 52.6089 27.9245Z" fill="#231F20"/>
<path d="M144.748 24.5414C146.719 24.5391 148.366 24.0084 149.544 22.9913C151.762 21.0767 151.733 18.3517 149.474 16.4782C146.995 14.4198 142.354 14.4174 139.859 16.4735C137.58 18.3489 137.637 21.3245 139.994 23.1001C141.402 24.1601 143.019 24.5442 144.748 24.5414ZM144.78 28.2465C141.194 28.1551 137.955 27.5058 135.159 25.3961C130.957 22.224 131.024 17.119 135.291 14.009C137.459 12.4295 139.913 11.6197 142.546 11.3844C146.619 11.0204 150.533 11.5142 153.981 13.9609C155.652 15.146 156.897 16.6737 157.23 18.7704C157.629 21.2989 156.604 23.3017 154.761 24.9237C152.493 26.9196 149.747 27.7695 146.813 28.1075C146.079 28.1929 145.339 28.2097 144.78 28.2465Z" fill="#231F20"/>
<path d="M79.6557 15.1084V24.3968C81.5102 24.2059 83.3238 24.1966 85.048 23.7975C87.1194 23.3182 88.0283 21.8642 88.0177 19.7237C88.0084 17.7395 86.9039 16.0736 84.9544 15.6531C83.2487 15.2862 81.4671 15.2801 79.6557 15.1084ZM73.5186 27.8135V11.7062C73.7179 11.6721 73.8843 11.6207 74.0502 11.6207C77.456 11.6305 80.8664 11.5554 84.2675 11.6889C87.1889 11.8028 89.9352 12.5757 92.102 14.7504C95.2784 17.9402 94.7815 23.243 91.0462 25.756C88.966 27.1554 86.6017 27.7281 84.1507 27.7911C80.6351 27.8798 77.1153 27.8135 73.5186 27.8135Z" fill="#231F20"/>
<path d="M59.3624 19.9373C61.0068 19.7394 62.5373 19.6423 64.0275 19.3436C64.9303 19.1634 65.468 18.4432 65.4661 17.4415C65.4657 16.445 64.8237 15.9423 64.0066 15.6333C62.4965 15.0616 60.9336 15.2786 59.3624 15.2842V19.9373ZM65.5718 22.4732C67.6441 24.2515 69.6858 26.0047 71.9264 27.9268H70.2624C69.462 27.9268 68.6425 27.8152 67.8647 27.9483C65.6441 28.3315 64.0377 27.4428 62.63 25.7975C61.728 24.743 60.6291 23.8571 59.615 22.8984C59.5793 22.8639 59.5148 22.8597 59.3165 22.7887V27.8825H53.5283V11.6159C54.0952 11.6159 54.6203 11.6141 55.1445 11.6164C58.0488 11.6281 60.954 11.6057 63.8583 11.6687C65.6483 11.7074 67.3961 12.03 68.928 13.0629C70.5104 14.1313 71.4735 15.5582 71.3155 17.5433C71.1607 19.4859 70.0186 20.763 68.3287 21.5434C67.4814 21.9346 66.553 22.1488 65.5718 22.4732Z" fill="#231F20"/>
<path d="M187.425 15.2828H180.235C180.235 16.0847 180.184 16.825 180.27 17.5508C180.292 17.7417 180.726 18.0208 180.978 18.0273C182.665 18.0689 184.355 18.0493 186.043 18.0493H187.092V21.6811H180.27V27.8643H174.412V11.6738H187.425V15.2828Z" fill="#231F20"/>
<path d="M165.683 24.2336H172.698V27.8822H159.652V11.6787H165.683V24.2336Z" fill="#231F20"/>
</svg>
