<svg width="101" height="101" viewBox="0 0 101 101" fill="none" xmlns="http://www.w3.org/2000/svg">
<path d="M49.5908 12.353C46.0128 12.353 43.0908 15.275 43.0908 18.853C43.0908 22.2622 45.7455 25.0696 49.0908 25.3276V28.853C49.0899 28.9193 49.1021 28.9851 49.1268 29.0465C49.1515 29.108 49.1882 29.164 49.2347 29.2112C49.2813 29.2584 49.3367 29.2958 49.3978 29.3214C49.459 29.347 49.5246 29.3601 49.5908 29.3601C49.6571 29.3601 49.7227 29.347 49.7838 29.3214C49.8449 29.2958 49.9004 29.2584 49.9469 29.2112C49.9934 29.164 50.0301 29.108 50.0548 29.0465C50.0795 28.9851 50.0918 28.9193 50.0908 28.853V25.3276C53.4361 25.0696 56.0908 22.2622 56.0908 18.853C56.0908 15.275 53.1688 12.353 49.5908 12.353ZM49.5908 14.353C52.0879 14.353 54.0908 16.3559 54.0908 18.853C54.0908 21.3502 52.0879 23.353 49.5908 23.353C47.0937 23.353 45.0908 21.3502 45.0908 18.853C45.0908 16.3559 47.0937 14.353 49.5908 14.353ZM21.4443 28.603C17.8663 28.603 14.9443 31.525 14.9443 35.103C14.9443 38.681 17.8663 41.603 21.4443 41.603C23.6621 41.603 25.6257 40.4786 26.7998 38.7729L29.8545 40.5366C29.9695 40.6029 30.1061 40.6208 30.2343 40.5864C30.3625 40.552 30.4718 40.468 30.5381 40.353C30.6044 40.238 30.6223 40.1014 30.5879 39.9732C30.5534 39.845 30.4695 39.7357 30.3545 39.6694L27.2979 37.9038C27.7072 37.0538 27.9443 36.1061 27.9443 35.103C27.9443 31.525 25.0223 28.603 21.4443 28.603ZM77.7373 28.603C74.1593 28.603 71.2373 31.525 71.2373 35.103C71.2373 36.1061 71.4744 37.0538 71.8838 37.9038L68.8271 39.6694C68.7702 39.7023 68.7203 39.746 68.6803 39.7981C68.6402 39.8502 68.6108 39.9097 68.5938 39.9732C68.5767 40.0367 68.5723 40.1029 68.5809 40.1681C68.5894 40.2332 68.6107 40.2961 68.6436 40.353C68.6764 40.41 68.7201 40.4599 68.7722 40.4999C68.8244 40.54 68.8839 40.5694 68.9473 40.5864C69.0108 40.6035 69.077 40.6078 69.1422 40.5993C69.2074 40.5907 69.2702 40.5695 69.3271 40.5366L72.3818 38.7729C73.5559 40.4786 75.5195 41.603 77.7373 41.603C81.3153 41.603 84.2373 38.681 84.2373 35.103C84.2373 31.525 81.3153 28.603 77.7373 28.603ZM49.583 30.3452C49.5173 30.3462 49.4525 30.3602 49.3923 30.3863C49.332 30.4123 49.2774 30.45 49.2317 30.4972C49.186 30.5443 49.1501 30.6 49.1259 30.6611C49.1017 30.7221 49.0898 30.7874 49.0908 30.853V31.853C49.0899 31.9193 49.1021 31.9851 49.1268 32.0465C49.1515 32.108 49.1882 32.164 49.2347 32.2112C49.2813 32.2584 49.3367 32.2958 49.3978 32.3214C49.459 32.347 49.5246 32.3601 49.5908 32.3601C49.6571 32.3601 49.7227 32.347 49.7838 32.3214C49.8449 32.2958 49.9004 32.2584 49.9469 32.2112C49.9934 32.164 50.0301 32.108 50.0548 32.0465C50.0795 31.9851 50.0918 31.9193 50.0908 31.853V30.853C50.0919 30.7861 50.0794 30.7195 50.0543 30.6575C50.0291 30.5954 49.9918 30.539 49.9444 30.4916C49.8971 30.4443 49.8407 30.4069 49.7786 30.3817C49.7165 30.3566 49.65 30.3442 49.583 30.3452ZM21.4443 30.603C23.9415 30.603 25.9443 32.6059 25.9443 35.103C25.9443 37.6002 23.9415 39.603 21.4443 39.603C18.9472 39.603 16.9443 37.6002 16.9443 35.103C16.9443 32.6059 18.9472 30.603 21.4443 30.603ZM77.7373 30.603C80.2344 30.603 82.2373 32.6059 82.2373 35.103C82.2373 37.6002 80.2344 39.603 77.7373 39.603C75.2402 39.603 73.2373 37.6002 73.2373 35.103C73.2373 32.6059 75.2402 30.603 77.7373 30.603ZM49.5908 35.353C44.9082 35.353 41.0908 39.1705 41.0908 43.853C41.0908 46.3848 42.2123 48.657 43.9775 50.2163C38.8305 52.9137 35.3065 59.113 35.0908 66.3237C35.0869 66.4551 35.109 66.5859 35.1557 66.7087C35.2023 66.8316 35.2728 66.944 35.3629 67.0396C35.453 67.1352 35.5611 67.2121 35.681 67.2659C35.8009 67.3198 35.9302 67.3494 36.0615 67.3533C36.1929 67.3571 36.3237 67.3351 36.4465 67.2884C36.5693 67.2416 36.6817 67.1712 36.7773 67.081C36.8729 66.9909 36.9498 66.8827 37.0036 66.7629C37.0574 66.643 37.087 66.5137 37.0908 66.3823C37.3032 59.2832 41.0599 53.4575 45.9326 51.5132C47.0428 52.0463 48.2805 52.353 49.5908 52.353C50.9011 52.353 52.1389 52.0463 53.249 51.5132C58.1215 53.4566 61.8784 59.2832 62.0908 66.3823C62.0946 66.5137 62.1243 66.643 62.1781 66.7629C62.2319 66.8827 62.3088 66.9909 62.4043 67.081C62.4999 67.1712 62.6123 67.2416 62.7351 67.2884C62.858 67.3351 62.9888 67.3571 63.1201 67.3533C63.2515 67.3494 63.3808 67.3198 63.5006 67.2659C63.6205 67.2121 63.7286 67.1352 63.8187 67.0396C63.9089 66.944 63.9793 66.8316 64.026 66.7087C64.0727 66.5859 64.0947 66.4551 64.0908 66.3237C63.8751 59.1128 60.3515 52.9111 55.2041 50.2144C56.9688 48.6551 58.0908 46.3843 58.0908 43.853C58.0908 39.1705 54.2734 35.353 49.5908 35.353ZM49.5908 37.353C53.1925 37.353 56.0908 40.2513 56.0908 43.853C56.0908 46.2587 54.7943 48.3462 52.8623 49.4702C52.861 49.4709 52.8597 49.4714 52.8584 49.4722C52.7598 49.5083 52.6675 49.5597 52.585 49.6245C51.6893 50.0882 50.673 50.353 49.5908 50.353C48.5046 50.353 47.485 50.0856 46.5869 49.6187C46.5102 49.5598 46.4253 49.5125 46.335 49.478C44.3946 48.3561 43.0908 46.2649 43.0908 43.853C43.0908 40.2513 45.9891 37.353 49.5908 37.353ZM31.7979 40.5991C31.6896 40.6056 31.5864 40.647 31.5037 40.7173C31.4211 40.7875 31.3635 40.8827 31.3397 40.9885C31.3159 41.0943 31.3271 41.205 31.3717 41.3039C31.4163 41.4027 31.4918 41.4844 31.5869 41.5366L32.4541 42.0366C32.511 42.0695 32.5739 42.0907 32.6391 42.0993C32.7042 42.1078 32.7704 42.1035 32.8339 42.0864C32.8974 42.0694 32.9569 42.04 33.009 41.9999C33.0611 41.9599 33.1049 41.91 33.1377 41.853C33.1705 41.7961 33.1918 41.7332 33.2004 41.6681C33.2089 41.6029 33.2045 41.5367 33.1875 41.4732C33.1704 41.4097 33.141 41.3502 33.101 41.2981C33.061 41.246 33.011 41.2023 32.9541 41.1694L32.0869 40.6694C32.0147 40.6263 31.9327 40.6021 31.8486 40.5991C31.8317 40.5983 31.8148 40.5983 31.7979 40.5991ZM67.3174 40.5991C67.2387 40.6047 67.1624 40.6288 67.0947 40.6694L66.2275 41.1694C66.1706 41.2023 66.1207 41.246 66.0806 41.2981C66.0406 41.3502 66.0112 41.4097 65.9942 41.4732C65.9771 41.5367 65.9727 41.6029 65.9813 41.6681C65.9898 41.7332 66.0111 41.7961 66.0439 41.853C66.0768 41.91 66.1205 41.9599 66.1726 41.9999C66.2247 42.04 66.2842 42.0694 66.3477 42.0864C66.4112 42.1035 66.4774 42.1078 66.5426 42.0993C66.6077 42.0907 66.6706 42.0695 66.7275 42.0366L67.5947 41.5366C67.6906 41.4836 67.7665 41.4006 67.8106 41.3003C67.8547 41.2 67.8647 41.088 67.839 40.9815C67.8132 40.875 67.7532 40.7799 67.6681 40.7108C67.5831 40.6417 67.4777 40.6025 67.3682 40.5991C67.3512 40.5983 67.3343 40.5983 67.3174 40.5991ZM32.6748 60.5991C32.5967 60.605 32.5212 60.629 32.4541 60.6694L31.5869 61.1694C31.53 61.2023 31.4801 61.246 31.44 61.2981C31.4 61.3502 31.3706 61.4097 31.3535 61.4732C31.3365 61.5367 31.3321 61.6029 31.3407 61.6681C31.3492 61.7332 31.3705 61.7961 31.4033 61.853C31.4362 61.91 31.4799 61.9599 31.532 61.9999C31.5841 62.04 31.6436 62.0694 31.7071 62.0864C31.7706 62.1035 31.8368 62.1078 31.902 62.0993C31.9671 62.0907 32.03 62.0695 32.0869 62.0366L32.9541 61.5366C33.0501 61.4835 33.126 61.4003 33.1701 61.2999C33.2142 61.1994 33.224 61.0872 33.198 60.9806C33.172 60.874 33.1117 60.7789 33.0263 60.7099C32.9409 60.641 32.8353 60.6021 32.7256 60.5991C32.7087 60.5983 32.6917 60.5983 32.6748 60.5991ZM66.4404 60.5991C66.332 60.6052 66.2285 60.6464 66.1456 60.7165C66.0627 60.7866 66.0048 60.8818 65.9807 60.9877C65.9567 61.0935 65.9678 61.2044 66.0123 61.3034C66.0568 61.4025 66.1324 61.4843 66.2275 61.5366L67.0947 62.0366C67.1517 62.0695 67.2145 62.0907 67.2797 62.0993C67.3449 62.1078 67.4111 62.1035 67.4745 62.0864C67.538 62.0694 67.5975 62.04 67.6496 61.9999C67.7018 61.9599 67.7455 61.91 67.7783 61.853C67.8111 61.7961 67.8324 61.7332 67.841 61.6681C67.8495 61.6029 67.8451 61.5367 67.8281 61.4732C67.8111 61.4097 67.7817 61.3502 67.7416 61.2981C67.7016 61.246 67.6517 61.2023 67.5947 61.1694L66.7275 60.6694C66.6559 60.6266 66.5746 60.6025 66.4912 60.5991C66.4743 60.5983 66.4573 60.5983 66.4404 60.5991ZM21.4443 61.103C17.8663 61.103 14.9443 64.025 14.9443 67.603C14.9443 71.181 17.8663 74.103 21.4443 74.103C25.0223 74.103 27.9443 71.181 27.9443 67.603C27.9443 66.6 27.7072 65.6523 27.2979 64.8022L30.3545 63.0366C30.4504 62.9836 30.5262 62.9006 30.5704 62.8003C30.6145 62.7 30.6245 62.588 30.5987 62.4815C30.573 62.375 30.513 62.2799 30.4279 62.2108C30.3428 62.1417 30.2375 62.1025 30.1279 62.0991C30.111 62.0983 30.0941 62.0983 30.0771 62.0991C29.9984 62.1047 29.9221 62.1288 29.8545 62.1694L26.7998 63.9331C25.6257 62.2274 23.6621 61.103 21.4443 61.103ZM77.7373 61.103C75.5195 61.103 73.5559 62.2274 72.3818 63.9331L69.3271 62.1694C69.2549 62.1263 69.1729 62.1021 69.0889 62.0991C69.072 62.0983 69.055 62.0983 69.0381 62.0991C68.9298 62.1056 68.8266 62.147 68.7439 62.2173C68.6613 62.2875 68.6038 62.3827 68.5799 62.4885C68.5561 62.5943 68.5674 62.705 68.612 62.8039C68.6566 62.9027 68.7321 62.9844 68.8271 63.0366L71.8838 64.8022C71.4744 65.6523 71.2373 66.6 71.2373 67.603C71.2373 71.181 74.1593 74.103 77.7373 74.103C81.3153 74.103 84.2373 71.181 84.2373 67.603C84.2373 64.025 81.3153 61.103 77.7373 61.103ZM21.4443 63.103C23.9415 63.103 25.9443 65.1059 25.9443 67.603C25.9443 70.1002 23.9415 72.103 21.4443 72.103C18.9472 72.103 16.9443 70.1002 16.9443 67.603C16.9443 65.1059 18.9472 63.103 21.4443 63.103ZM77.7373 63.103C80.2344 63.103 82.2373 65.1059 82.2373 67.603C82.2373 70.1002 80.2344 72.103 77.7373 72.103C75.2402 72.103 73.2373 70.1002 73.2373 67.603C73.2373 65.1059 75.2402 63.103 77.7373 63.103ZM49.583 70.3452C49.5173 70.3462 49.4525 70.3602 49.3923 70.3863C49.332 70.4123 49.2774 70.45 49.2317 70.4972C49.186 70.5443 49.1501 70.6 49.1259 70.6611C49.1017 70.7221 49.0898 70.7874 49.0908 70.853V71.853C49.0899 71.9193 49.1021 71.9851 49.1268 72.0465C49.1515 72.108 49.1882 72.164 49.2347 72.2112C49.2813 72.2584 49.3367 72.2958 49.3978 72.3214C49.459 72.347 49.5246 72.3601 49.5908 72.3601C49.6571 72.3601 49.7227 72.347 49.7838 72.3214C49.8449 72.2958 49.9004 72.2584 49.9469 72.2112C49.9934 72.164 50.0301 72.108 50.0548 72.0465C50.0795 71.9851 50.0918 71.9193 50.0908 71.853V70.853C50.0919 70.7861 50.0794 70.7195 50.0543 70.6575C50.0291 70.5954 49.9918 70.539 49.9444 70.4916C49.8971 70.4443 49.8407 70.4069 49.7786 70.3817C49.7165 70.3566 49.65 70.3442 49.583 70.3452ZM49.583 73.3452C49.5173 73.3462 49.4525 73.3602 49.3923 73.3863C49.332 73.4123 49.2774 73.45 49.2317 73.4972C49.186 73.5443 49.1501 73.6 49.1259 73.6611C49.1017 73.7221 49.0898 73.7874 49.0908 73.853V77.3784C45.7455 77.6364 43.0908 80.4439 43.0908 83.853C43.0908 87.431 46.0128 90.353 49.5908 90.353C53.1688 90.353 56.0908 87.431 56.0908 83.853C56.0908 80.4439 53.4361 77.6364 50.0908 77.3784V73.853C50.0919 73.7861 50.0794 73.7195 50.0543 73.6575C50.0291 73.5954 49.9918 73.539 49.9444 73.4916C49.8971 73.4443 49.8407 73.4069 49.7786 73.3817C49.7165 73.3566 49.65 73.3442 49.583 73.3452ZM49.5908 79.353C52.0879 79.353 54.0908 81.3559 54.0908 83.853C54.0908 86.3502 52.0879 88.353 49.5908 88.353C47.0937 88.353 45.0908 86.3502 45.0908 83.853C45.0908 81.3559 47.0937 79.353 49.5908 79.353Z" fill="#ED1C24"/>
</svg>
