<svg width="63" height="63" viewBox="0 0 63 63" fill="none" xmlns="http://www.w3.org/2000/svg">
<g clip-path="url(#clip0_807_7769)">
<path d="M36.0123 1.86518C35.7798 1.90877 35.5666 2.01533 35.3923 2.17518L30.161 6.67018L28.3785 4.69393C28.1363 4.41299 27.7779 4.25799 27.4098 4.26768C27.0998 4.29189 26.8091 4.42752 26.596 4.65518L23.496 7.79393H19.2723C19.2335 7.79393 19.1948 7.79393 19.156 7.79393C19.1173 7.79393 19.0785 7.79393 19.0398 7.79393C18.8412 7.83752 18.6523 7.92955 18.4973 8.06518L5.90352 17.7527L5.82602 17.7914C5.81148 17.806 5.8018 17.8156 5.78727 17.8302C5.77273 17.8302 5.76305 17.8302 5.74852 17.8302C5.69523 17.8544 5.64195 17.8786 5.59352 17.9077C5.57898 17.9222 5.5693 17.9319 5.55477 17.9464C5.5257 17.9706 5.50148 17.9949 5.47727 18.0239C5.43367 18.0578 5.39492 18.0966 5.36102 18.1402C5.31742 18.1886 5.27867 18.2419 5.24477 18.2952C5.23023 18.3194 5.2157 18.3485 5.20602 18.3727C5.19148 18.3872 5.1818 18.3969 5.16727 18.4114C5.1382 18.4744 5.10914 18.5374 5.08977 18.6052L0.207266 28.3314C-0.0349224 28.811 0.0571095 29.3874 0.434922 29.77C0.817579 30.1478 1.39398 30.2399 1.87352 29.9977L5.05102 28.4089V53.6739C5.05102 54.3569 5.60805 54.9139 6.29102 54.9139H43.491C43.5055 54.9139 43.5152 54.9139 43.5298 54.9139C43.6073 54.9091 43.6848 54.8946 43.7623 54.8752C43.801 54.8655 43.8398 54.851 43.8785 54.8364C44.1885 54.7444 44.4549 54.5361 44.6148 54.2552L54.3798 42.0489C54.5541 41.831 54.651 41.5549 54.651 41.2739V29.4164L61.7423 22.3252C62.1346 21.9135 62.1976 21.2935 61.8973 20.8139L54.6898 8.80143C54.6801 8.76268 54.6655 8.72393 54.651 8.68518C54.5977 8.5108 54.5009 8.3558 54.3798 8.22018C54.3701 8.19596 54.3555 8.16689 54.341 8.14268C54.3265 8.14268 54.3168 8.14268 54.3023 8.14268C54.2926 8.11846 54.278 8.08939 54.2635 8.06518C54.249 8.06518 54.2393 8.06518 54.2248 8.06518C54.2005 8.05064 54.1715 8.03611 54.1473 8.02643C54.1473 8.01189 54.1473 8.00221 54.1473 7.98768C54.1327 7.98768 54.123 7.98768 54.1085 7.98768C54.0455 7.94408 53.9826 7.90533 53.9148 7.87143C53.9002 7.87143 53.8905 7.87143 53.876 7.87143C53.8518 7.85689 53.8227 7.84236 53.7985 7.83268C53.784 7.83268 53.7743 7.83268 53.7598 7.83268C53.7355 7.81814 53.7065 7.80361 53.6823 7.79393C53.6677 7.79393 53.658 7.79393 53.6435 7.79393C53.6193 7.79393 53.5902 7.79393 53.566 7.79393C53.5515 7.79393 53.5418 7.79393 53.5273 7.79393C53.503 7.79393 53.474 7.79393 53.4498 7.79393C53.4352 7.79393 53.4255 7.79393 53.411 7.79393H53.3335C53.3093 7.79393 53.2802 7.79393 53.256 7.79393H42.2898L37.0973 2.29143C36.8793 2.03955 36.5741 1.88939 36.2448 1.86518C36.1673 1.85549 36.0898 1.85549 36.0123 1.86518ZM36.1285 4.81018L45.6998 14.9627L42.9485 17.7139H39.9648C39.9309 17.6703 39.8921 17.6316 39.8485 17.5977L31.7885 8.53018L36.1285 4.81018ZM27.4098 7.32893L36.671 17.7139H17.2573L27.4098 7.32893ZM19.6598 10.2739H21.0935L13.7698 17.7139H9.93352L19.6598 10.2739ZM44.6148 10.2739H50.3885L47.4048 13.2577L44.6148 10.2739ZM53.1785 11.0489L59.301 21.2014L51.1635 29.3389L45.041 19.1864L53.1785 11.0489ZM7.53102 20.1939H42.251V52.4339H7.53102V26.5489C7.53586 26.4956 7.53586 26.4472 7.53102 26.3939V20.1939ZM44.731 23.3714L49.8848 31.9739C50.0737 32.3033 50.4079 32.531 50.7857 32.5842C51.1635 32.6375 51.5462 32.5116 51.8223 32.2452L52.171 31.8964V40.8477L44.731 50.1477V23.3714ZM5.05102 24.2239V25.6189L4.12102 26.0839L5.05102 24.2239ZM18.3423 25.1539C17.6593 25.2508 17.1798 25.8853 17.2766 26.5683C17.3735 27.2513 18.008 27.7308 18.691 27.6339H31.091C31.5366 27.6388 31.9532 27.4063 32.1809 27.0188C32.4037 26.6313 32.4037 26.1566 32.1809 25.7691C31.9532 25.3816 31.5366 25.1491 31.091 25.1539H18.691C18.6523 25.1539 18.6135 25.1539 18.5748 25.1539C18.536 25.1539 18.4973 25.1539 18.4585 25.1539C18.4198 25.1539 18.381 25.1539 18.3423 25.1539Z" fill="#ED1C24"/>
</g>
<defs>
<clipPath id="clip0_807_7769">
<rect width="62" height="62" fill="white" transform="translate(0.0908203 0.354004)"/>
</clipPath>
</defs>
</svg>
