<svg width="14" height="15" viewBox="0 0 14 15" fill="none" xmlns="http://www.w3.org/2000/svg">
<path d="M5.06953 12.3125H2.625C2.50897 12.3125 2.39769 12.2664 2.31564 12.1844C2.2336 12.1023 2.1875 11.991 2.1875 11.875V9.43046C2.1873 9.37365 2.19831 9.31736 2.21989 9.26481C2.24148 9.21226 2.27321 9.16448 2.31328 9.12421L8.87578 2.56171C8.91649 2.52037 8.96502 2.48754 9.01853 2.46514C9.07205 2.44273 9.12949 2.43119 9.1875 2.43119C9.24552 2.43119 9.30296 2.44273 9.35647 2.46514C9.40999 2.48754 9.45851 2.52037 9.49922 2.56171L11.9383 5.00077C11.9796 5.04148 12.0124 5.09001 12.0349 5.14352C12.0573 5.19704 12.0688 5.25447 12.0688 5.31249C12.0688 5.37051 12.0573 5.42795 12.0349 5.48146C12.0124 5.53498 11.9796 5.5835 11.9383 5.62421L5.37578 12.1867C5.33551 12.2268 5.28774 12.2585 5.23519 12.2801C5.18264 12.3017 5.12634 12.3127 5.06953 12.3125V12.3125Z" stroke="#191819" stroke-width="1.5" stroke-linecap="round" stroke-linejoin="round"/>
<path d="M7.4375 4L10.5 7.0625" stroke="#191819" stroke-width="1.5" stroke-linecap="round" stroke-linejoin="round"/>
</svg>
