<svg width="18" height="19" viewBox="0 0 18 19" fill="none" xmlns="http://www.w3.org/2000/svg">
<path d="M9 1.25003C7.36831 1.25003 5.77325 1.73388 4.41655 2.64041C3.05984 3.54693 2.00242 4.8354 1.378 6.34289C0.753575 7.85038 0.590197 9.50918 0.908525 11.1095C1.22685 12.7099 2.01259 14.1799 3.16637 15.3337C4.32016 16.4874 5.79016 17.2732 7.39051 17.5915C8.99085 17.9098 10.6496 17.7465 12.1571 17.122C13.6646 16.4976 14.9531 15.4402 15.8596 14.0835C16.7661 12.7268 17.25 11.1317 17.25 9.50003C17.2458 7.31328 16.3753 5.2173 14.829 3.67103C13.2827 2.12476 11.1867 1.25422 9 1.25003ZM9 14.577C8.81173 14.577 8.62769 14.5211 8.47114 14.4165C8.3146 14.3119 8.19259 14.1633 8.12054 13.9893C8.04849 13.8154 8.02964 13.624 8.06637 13.4393C8.1031 13.2547 8.19376 13.085 8.32689 12.9519C8.46002 12.8188 8.62964 12.7281 8.81429 12.6914C8.99895 12.6547 9.19034 12.6735 9.36429 12.7456C9.53823 12.8176 9.6869 12.9396 9.7915 13.0962C9.8961 13.2527 9.95192 13.4368 9.95192 13.625C9.95192 13.8775 9.85163 14.1196 9.67311 14.2981C9.49459 14.4767 9.25247 14.577 9 14.577ZM9.63462 10.6979V10.7693C9.63462 10.9376 9.56776 11.099 9.44874 11.218C9.32973 11.337 9.16831 11.4039 9 11.4039C8.83169 11.4039 8.67027 11.337 8.55126 11.218C8.43225 11.099 8.36539 10.9376 8.36539 10.7693V10.1346C8.36539 9.96633 8.43225 9.80492 8.55126 9.6859C8.67027 9.56689 8.83169 9.50003 9 9.50003C9.31379 9.50003 9.62053 9.40698 9.88144 9.23265C10.1423 9.05832 10.3457 8.81053 10.4658 8.52063C10.5859 8.23073 10.6173 7.91173 10.5561 7.60397C10.4948 7.29621 10.3437 7.01352 10.1219 6.79164C9.89997 6.56976 9.61728 6.41865 9.30952 6.35744C9.00176 6.29622 8.68276 6.32764 8.39286 6.44772C8.10296 6.5678 7.85517 6.77115 7.68084 7.03206C7.50651 7.29296 7.41346 7.5997 7.41346 7.91349C7.41346 8.0818 7.3466 8.24322 7.22759 8.36223C7.10858 8.48124 6.94716 8.54811 6.77885 8.54811C6.61054 8.54811 6.44912 8.48124 6.33011 8.36223C6.21109 8.24322 6.14423 8.0818 6.14423 7.91349C6.14424 7.3759 6.29598 6.84922 6.58202 6.39404C6.86805 5.93886 7.27676 5.57366 7.76114 5.34044C8.24551 5.10723 8.78587 5.01547 9.32008 5.07573C9.85429 5.13598 10.3606 5.3458 10.7809 5.68105C11.2011 6.0163 11.5182 6.46336 11.6957 6.97082C11.8732 7.47828 11.9038 8.02553 11.784 8.54961C11.6643 9.0737 11.399 9.55334 11.0188 9.93338C10.6386 10.3134 10.1588 10.5784 9.63462 10.6979Z" fill="#191819"/>
</svg>
