<svg width="21" height="21" viewBox="0 0 21 21" fill="none" xmlns="http://www.w3.org/2000/svg">
<path d="M10.3734 3.65918C4.01743 3.65918 3.03879 5.53362 3.03879 7.22428C3.03879 7.76562 3.17916 8.14038 3.32916 8.38704C3.48382 8.64038 3.78207 8.76316 4.06874 8.68783C4.78407 8.50116 6.32736 8.09715 7.0427 7.91048C7.27803 7.84915 7.45796 7.66404 7.51796 7.42871L7.82004 6.236C7.88738 5.96934 8.10791 5.77261 8.38124 5.73861C8.85324 5.68061 9.62879 5.60189 10.3721 5.60189C11.1148 5.60189 11.8903 5.68061 12.363 5.73861C12.6363 5.77194 12.8569 5.96867 12.9242 6.236L13.2263 7.42871C13.2856 7.66404 13.4688 7.84915 13.7042 7.91048L16.6742 8.68783C16.9615 8.76249 17.2617 8.63974 17.4164 8.38574C17.5657 8.13841 17.7055 7.76428 17.7055 7.22428C17.7055 5.53362 16.7294 3.65918 10.3734 3.65918ZM9.02838 8.31673C8.85179 8.31949 8.68352 8.3922 8.56048 8.5189C8.43745 8.64559 8.36971 8.81592 8.37213 8.99251V8.99512C7.93067 9.00294 7.50402 9.15406 7.15858 9.43001L5.19634 10.999C4.66634 11.423 4.31839 12.0328 4.22239 12.7048L3.80051 15.6592H3.70546C3.61712 15.6579 3.52941 15.6743 3.44743 15.7072C3.36545 15.7401 3.29084 15.789 3.22792 15.8511C3.16501 15.9131 3.11505 15.987 3.08095 16.0685C3.04686 16.15 3.0293 16.2375 3.0293 16.3258C3.0293 16.4142 3.04686 16.5017 3.08095 16.5832C3.11505 16.6647 3.16501 16.7386 3.22792 16.8006C3.29084 16.8626 3.36545 16.9116 3.44743 16.9445C3.52941 16.9774 3.61712 16.9938 3.70546 16.9925H17.0388C17.1271 16.9938 17.2148 16.9774 17.2968 16.9445C17.3788 16.9116 17.4534 16.8626 17.5163 16.8006C17.5792 16.7386 17.6292 16.6647 17.6633 16.5832C17.6974 16.5017 17.715 16.4142 17.715 16.3258C17.715 16.2375 17.6974 16.15 17.6633 16.0685C17.6292 15.987 17.5792 15.9131 17.5163 15.8511C17.4534 15.789 17.3788 15.7401 17.2968 15.7072C17.2148 15.6743 17.1271 15.6579 17.0388 15.6592H16.9437L16.5219 12.7048C16.4259 12.0334 16.0779 11.423 15.5479 10.999L13.587 9.43001C13.2415 9.15406 12.8136 9.00294 12.3721 8.99512V8.99251C12.3733 8.90332 12.3567 8.81479 12.323 8.73216C12.2894 8.64954 12.2396 8.57449 12.1765 8.51148C12.1133 8.44846 12.0382 8.39876 11.9555 8.36531C11.8728 8.33186 11.7842 8.31534 11.695 8.31673C11.5185 8.31949 11.3502 8.3922 11.2271 8.5189C11.1041 8.64559 11.0364 8.81592 11.0388 8.99251H9.70546C9.70668 8.90332 9.68999 8.81479 9.65638 8.73216C9.62277 8.64954 9.57292 8.57449 9.50979 8.51148C9.44665 8.44846 9.37151 8.39876 9.28882 8.36531C9.20613 8.33186 9.11757 8.31534 9.02838 8.31673ZM9.03879 10.9925C9.40679 10.9925 9.70546 11.2912 9.70546 11.6592C9.70546 12.0272 9.40679 12.3258 9.03879 12.3258C8.67079 12.3258 8.37213 12.0272 8.37213 11.6592C8.37213 11.2912 8.67079 10.9925 9.03879 10.9925ZM11.7055 10.9925C12.0735 10.9925 12.3721 11.2912 12.3721 11.6592C12.3721 12.0272 12.0735 12.3258 11.7055 12.3258C11.3375 12.3258 11.0388 12.0272 11.0388 11.6592C11.0388 11.2912 11.3375 10.9925 11.7055 10.9925ZM9.03879 13.6592C9.40679 13.6592 9.70546 13.9578 9.70546 14.3258C9.70546 14.6938 9.40679 14.9925 9.03879 14.9925C8.67079 14.9925 8.37213 14.6938 8.37213 14.3258C8.37213 13.9578 8.67079 13.6592 9.03879 13.6592ZM11.7055 13.6592C12.0735 13.6592 12.3721 13.9578 12.3721 14.3258C12.3721 14.6938 12.0735 14.9925 11.7055 14.9925C11.3375 14.9925 11.0388 14.6938 11.0388 14.3258C11.0388 13.9578 11.3375 13.6592 11.7055 13.6592Z" fill="#ED1C24"/>
</svg>
