<svg width="17" height="12" viewBox="0 0 17 12" fill="none" xmlns="http://www.w3.org/2000/svg">
<path d="M11.3125 2.50001H13.975C14.0746 2.49936 14.1721 2.52886 14.2546 2.58463C14.3372 2.64041 14.4009 2.71984 14.4375 2.81251L15.3125 5.00001" stroke="white" stroke-width="1.5" stroke-linecap="round" stroke-linejoin="round"/>
<path d="M1.3125 6.5H11.3125" stroke="white" stroke-width="1.5" stroke-linecap="round" stroke-linejoin="round"/>
<path d="M12.0625 11C12.8909 11 13.5625 10.3284 13.5625 9.5C13.5625 8.67157 12.8909 8 12.0625 8C11.2341 8 10.5625 8.67157 10.5625 9.5C10.5625 10.3284 11.2341 11 12.0625 11Z" stroke="white" stroke-width="1.5" stroke-linecap="round" stroke-linejoin="round"/>
<path d="M4.5625 11C5.39093 11 6.0625 10.3284 6.0625 9.5C6.0625 8.67157 5.39093 8 4.5625 8C3.73407 8 3.0625 8.67157 3.0625 9.5C3.0625 10.3284 3.73407 11 4.5625 11Z" stroke="white" stroke-width="1.5" stroke-linecap="round" stroke-linejoin="round"/>
<path d="M10.5625 9.5H6.0625" stroke="white" stroke-width="1.5" stroke-linecap="round" stroke-linejoin="round"/>
<path d="M3.0625 9.5H1.8125C1.67989 9.5 1.55271 9.44732 1.45895 9.35355C1.36518 9.25979 1.3125 9.13261 1.3125 9V2C1.3125 1.86739 1.36518 1.74021 1.45895 1.64645C1.55271 1.55268 1.67989 1.5 1.8125 1.5H11.3125V8.2" stroke="white" stroke-width="1.5" stroke-linecap="round" stroke-linejoin="round"/>
<path d="M11.3125 5H15.3125V9C15.3125 9.13261 15.2598 9.25979 15.1661 9.35355C15.0723 9.44732 14.9451 9.5 14.8125 9.5H13.5625" stroke="white" stroke-width="1.5" stroke-linecap="round" stroke-linejoin="round"/>
</svg>
