<svg width="448" height="390" viewBox="0 0 448 390" fill="none" xmlns="http://www.w3.org/2000/svg">
<path d="M128.91 193.292C123.227 203.981 125.257 213.204 129.816 221.514C138.184 236.768 147.645 251.44 156.35 266.527C159.77 272.473 162.355 278.896 166.123 286.754C162.224 286.125 160.43 286.348 159.337 285.587C126.889 262.54 98.9101 235.632 89.3687 195.082C85.9985 180.756 87.3032 165.349 84.3159 150.88C80.9658 134.656 75.1624 118.925 70.4421 102.98L67.8577 103.634V164.01C61.1878 156.973 54.8202 151.403 49.8429 144.782C29.8584 118.219 19.4908 87.2935 11.496 55.5306C7.11827 38.1094 4.15106 20.3179 0 0C12.2567 2.4554 22.3674 3.67295 31.9894 6.54942C82.2605 21.5659 117.096 56.0075 144.602 98.9617C154.471 114.394 162.702 130.887 172.627 148.572C189.881 116.611 206.48 85.873 224.072 53.3136C241.366 85.3403 257.93 116.023 275.537 148.633C278.725 143.032 281.335 138.852 283.552 134.469C297.148 107.545 312.498 81.8399 333.339 59.7971C361.56 29.9467 394.391 8.39098 435.725 2.06985C439.418 1.50165 443.191 1.50165 447.06 1.2277C443.589 47.8346 418.421 139.126 381.353 161.975V101.224C371.137 120.533 365.328 140.288 362.709 161.001C361.379 171.563 361.636 182.349 360.054 192.86C357.339 210.885 349.238 226.942 337.465 240.426C325.435 254.225 311.848 266.695 298.599 279.378C295.063 282.767 290.277 284.811 286.06 287.474L283.652 285.597C285.688 280.808 287.244 275.725 289.849 271.281C298.181 257.086 307.466 243.435 315.244 228.951C319.264 221.453 321.349 212.778 323.339 204.407C324.055 201.414 321.914 197.736 320.74 192.982C295.415 206.822 281.073 226.556 277.587 254.149C272.605 293.583 267.391 332.986 262.711 372.465C261.456 383.068 255.92 388.516 246.006 388.942C231.875 389.531 217.669 389.759 203.558 388.968C190.949 388.263 187.382 383.661 185.599 369.355C180.899 331.514 176.138 293.679 171.614 255.823C168.259 227.759 154.158 207.334 128.91 193.292Z" fill="#EFEFEF"/>
</svg>
