<svg width="220" height="46" viewBox="0 0 220 46" fill="none" xmlns="http://www.w3.org/2000/svg">
<g clip-path="url(#clip0_3843_16462)">
<path d="M133.804 39.5306C133.892 38.755 133.958 38.1438 134.041 37.4036H212.693C212.995 37.4036 213.298 37.4072 213.602 37.4031C215.633 37.3723 216.7 36.3344 216.701 34.3559C216.704 25.3011 216.703 16.2453 216.703 7.19096C216.703 6.56954 216.711 5.94915 216.701 5.32722C216.67 3.52856 215.594 2.50499 213.72 2.48347C213.52 2.48142 213.317 2.48347 213.116 2.48347H5.87441C3.15742 2.48347 2.27069 3.35079 2.27069 6.01063V33.7642C2.27069 36.5419 3.15005 37.4036 5.98643 37.4036H121.304C121.398 38.1316 121.48 38.7668 121.578 39.5306H120.392C82.0343 39.5306 43.6751 39.5306 5.31586 39.5291C2.08924 39.5291 0.0344056 37.5245 0.0328278 34.3749C0.0307241 24.7642 0.0307241 15.1531 0.0328278 5.54188C0.0328278 2.31544 2.04243 0.336954 5.35636 0.335417C19.4546 0.329782 33.5534 0.332856 47.6517 0.332856C102.836 0.332856 158.02 0.333368 213.202 0.325684C214.506 0.325684 215.76 0.420458 216.849 1.1971C218.115 2.09874 218.89 3.29136 218.894 4.84054C218.907 14.9097 218.917 24.9773 218.886 35.0455C218.879 37.4476 216.788 39.4072 214.285 39.5276C214.051 39.5393 213.815 39.5306 213.579 39.5306H133.804Z" fill="#ED1C24"/>
<path d="M117.71 25.4306C117.117 26.51 117.329 27.4414 117.805 28.2805C118.678 29.821 119.666 31.3025 120.575 32.8261C120.932 33.4265 121.202 34.0751 121.595 34.8686C121.188 34.8051 121.001 34.8276 120.887 34.7508C117.499 32.4234 114.578 29.7062 113.582 25.6114C113.23 24.1647 113.366 22.6089 113.055 21.1478C112.705 19.5095 112.099 17.9209 111.606 16.3107L111.336 16.3768V22.4736C110.64 21.7631 109.975 21.2006 109.456 20.532C107.369 17.8496 106.287 14.7267 105.452 11.5192C104.995 9.75999 104.685 7.96336 104.252 5.91162C105.532 6.15957 106.587 6.28252 107.592 6.57299C112.84 8.08939 116.477 11.5674 119.348 15.905C120.379 17.4634 121.238 19.1288 122.274 20.9147C124.076 17.6872 125.809 14.5832 127.645 11.2953C129.451 14.5295 131.18 17.6278 133.018 20.9209C133.351 20.3553 133.623 19.9331 133.855 19.4905C135.274 16.7718 136.877 14.176 139.053 11.95C141.999 8.9357 145.427 6.75896 149.742 6.12064C150.127 6.06326 150.521 6.06326 150.925 6.0356C150.563 10.7421 147.935 19.9608 144.065 22.2682V16.1335C142.999 18.0833 142.392 20.0781 142.119 22.1698C141.98 23.2364 142.007 24.3256 141.842 25.387C141.558 27.2072 140.713 28.8286 139.483 30.1903C138.227 31.5838 136.809 32.843 135.426 34.1237C135.057 34.4659 134.557 34.6724 134.117 34.9414L133.865 34.7518C134.078 34.2682 134.24 33.7549 134.512 33.3061C135.382 31.8727 136.351 30.4941 137.164 29.0315C137.583 28.2743 137.801 27.3983 138.009 26.553C138.083 26.2508 137.86 25.8794 137.737 25.3993C135.093 26.7969 133.596 28.7897 133.232 31.5761C132.712 35.5582 132.168 39.5372 131.679 43.5238C131.548 44.5945 130.97 45.1447 129.935 45.1878C128.46 45.2472 126.977 45.2703 125.503 45.1903C124.187 45.1191 123.815 44.6545 123.629 43.2098C123.138 39.3886 122.641 35.5679 122.169 31.7451C121.818 28.9111 120.346 26.8486 117.71 25.4306Z" fill="#ED1C24"/>
<path d="M42.8312 24.1911H48.3983C47.4874 22.2024 46.6206 20.3074 45.6629 18.2137C44.6615 20.3274 43.7721 22.2045 42.8312 24.1911ZM16.334 24.2157H21.9258C21.0191 22.2311 20.1492 20.3264 19.1851 18.2142C18.1806 20.3284 17.2881 22.2075 16.334 24.2157ZM59.16 30.5282C56.6355 30.5282 54.293 30.5492 51.9515 30.4995C51.6849 30.4939 51.3735 30.1256 51.1721 29.8612C49.0526 27.0579 46.1052 25.4698 42.7455 24.3156C41.7594 26.1476 40.7885 27.893 39.8828 29.6707C39.561 30.2998 39.1923 30.559 38.4318 30.5513C34.2611 30.5093 30.0894 30.5206 25.9176 30.5441C25.3522 30.5467 25.0325 30.3689 24.7043 29.9212C22.6279 27.0923 19.6826 25.4816 16.2693 24.3202C15.4141 25.9063 14.5053 27.4232 13.768 29.0159C13.2378 30.1594 12.5935 30.6891 11.2077 30.5702C9.37586 30.4135 7.52035 30.5318 5.47656 30.5318C10.0575 22.9965 14.5584 15.5943 19.1646 8.02002C23.5562 15.3295 27.8789 22.5262 32.3193 29.916C36.7724 22.5994 41.1503 15.4078 45.644 8.02412C50.1728 15.5636 54.6227 22.9729 59.16 30.5282Z" fill="white"/>
<path d="M163.712 26.8159C165.949 26.8134 167.817 26.2309 169.154 25.1146C171.671 23.0132 171.637 20.0224 169.075 17.966C166.262 15.7068 160.995 15.7043 158.164 17.9609C155.578 20.0193 155.643 23.2852 158.318 25.234C159.915 26.3974 161.75 26.819 163.712 26.8159ZM163.748 30.8825C159.679 30.7821 156.004 30.0695 152.831 27.754C148.063 24.2724 148.139 18.6694 152.981 15.256C155.441 13.5224 158.226 12.6336 161.213 12.3754C165.835 11.9758 170.276 12.5178 174.189 15.2032C176.085 16.504 177.498 18.1807 177.875 20.4819C178.328 23.257 177.165 25.4553 175.074 27.2355C172.5 29.4261 169.384 30.359 166.054 30.7299C165.222 30.8236 164.382 30.8421 163.748 30.8825Z" fill="white"/>
<path d="M89.8507 16.4625V26.6572C91.9549 26.4477 94.0129 26.4374 95.9694 25.9994C98.3198 25.4733 99.3512 23.8775 99.3391 21.5281C99.3286 19.3503 98.0753 17.5219 95.8632 17.0604C93.9277 16.6577 91.906 16.651 89.8507 16.4625ZM82.8867 30.4072V12.7284C83.1129 12.691 83.3017 12.6346 83.49 12.6346C87.3546 12.6454 91.2244 12.5629 95.0837 12.7094C98.3987 12.8344 101.515 13.6828 103.974 16.0696C107.578 19.5706 107.014 25.3908 102.776 28.149C100.415 29.6849 97.7323 30.3134 94.9512 30.3826C90.962 30.4799 86.968 30.4072 82.8867 30.4072Z" fill="white"/>
<path d="M66.8231 21.7619C68.6891 21.5447 70.4258 21.4381 72.1167 21.1103C73.1412 20.9125 73.7513 20.1221 73.7492 19.0227C73.7486 17.9289 73.0202 17.3772 72.093 17.038C70.3795 16.4105 68.606 16.6487 66.8231 16.6548V21.7619ZM73.8691 24.5452C76.2205 26.4971 78.5373 28.4212 81.0797 30.5309H79.1916C78.2833 30.5309 77.3534 30.4084 76.4709 30.5544C73.9511 30.975 72.1282 29.9996 70.531 28.1938C69.5075 27.0365 68.2605 26.0642 67.1097 25.0119C67.0692 24.974 66.9961 24.9694 66.771 24.8915V30.4822H60.2031V12.6287C60.8463 12.6287 61.4422 12.6267 62.0371 12.6292C65.3326 12.642 68.6292 12.6174 71.9247 12.6866C73.9559 12.7291 75.9392 13.0831 77.6774 14.2168C79.4729 15.3895 80.5658 16.9556 80.3865 19.1343C80.2108 21.2665 78.9149 22.6682 76.9973 23.5247C76.0359 23.954 74.9825 24.1892 73.8691 24.5452Z" fill="white"/>
<path d="M212.138 16.653H203.98C203.98 17.5331 203.922 18.3456 204.019 19.1422C204.045 19.3517 204.537 19.6581 204.823 19.6653C206.736 19.7109 208.654 19.6893 210.57 19.6893H211.761V23.6755H204.019V30.4619H197.372V12.6919H212.138V16.653Z" fill="white"/>
<path d="M187.467 26.478H195.428V30.4826H180.624V12.6982H187.467V26.478Z" fill="white"/>
</g>
<defs>
<clipPath id="clip0_3843_16462">
<rect width="219" height="45" fill="white" transform="translate(0.03125 0.325684)"/>
</clipPath>
</defs>
</svg>
