<svg width="194" height="41" viewBox="0 0 194 41" fill="none" xmlns="http://www.w3.org/2000/svg">
<g clip-path="url(#clip0_5004_990)">
<path d="M105.628 33.7819H106.907C106.989 34.4451 107.061 35.0239 107.148 35.7199H106.103C72.2991 35.7199 38.4935 35.7199 4.68789 35.7185C1.84526 35.7185 0.0334516 33.892 0.0329881 31.0219C0.0306706 22.266 0.0306706 13.5087 0.0329881 4.75232C0.0329881 1.81221 1.80401 0.00959214 4.72404 0.00865862C17.1485 0.00305752 29.574 0.006325 41.9985 0.006325C90.6304 0.006325 139.263 0.00679156 187.894 -0.000209808C189.044 -0.000209808 190.149 0.0861405 191.109 0.793746C192.224 1.61524 192.908 2.70185 192.91 4.11333C192.921 13.287 192.932 22.4602 192.904 31.6334C192.897 33.8211 191.054 35.6069 188.849 35.717C188.642 35.7273 188.434 35.7199 188.227 35.7199H117.923C117.999 35.0127 118.059 34.4563 118.13 33.7819H187.446C187.712 33.7819 187.979 33.7847 188.246 33.7814" fill="white"/>
<path d="M117.923 35.7199C118 35.0132 118.058 34.4563 118.131 33.7819H187.445C187.712 33.7819 187.979 33.7851 188.246 33.7814C190.037 33.7534 190.977 32.8078 190.978 31.0051C190.98 22.7552 190.98 14.5043 190.98 6.25482C190.98 5.68864 190.986 5.12339 190.978 4.55675C190.951 2.91796 190.002 1.98538 188.351 1.96578C188.174 1.96391 187.995 1.96578 187.818 1.96578H5.1807C2.78627 1.96578 2.00482 2.756 2.00482 5.1794V30.466C2.00482 32.9968 2.77978 33.7819 5.27942 33.7819H106.907C106.989 34.4451 107.061 35.0239 107.148 35.7199H106.103C72.2988 35.7199 38.4936 35.7199 4.68847 35.7185C1.84491 35.7185 0.034031 33.892 0.0326405 31.0224C0.0307865 22.266 0.0307865 13.5092 0.0326405 4.75232C0.0326405 1.81268 1.80366 0.0100589 4.72415 0.0086586C17.1487 0.00352426 29.5736 0.0063248 41.9981 0.0063248C90.6305 0.0063248 139.263 0.00679156 187.894 -0.000209808C189.043 -0.000209808 190.148 0.0861404 191.108 0.793746C192.224 1.61524 192.907 2.70185 192.91 4.11333C192.922 13.2875 192.931 22.4602 192.903 31.6334C192.897 33.822 191.055 35.6074 188.849 35.717C188.642 35.7278 188.434 35.7199 188.226 35.7199H117.923Z" fill="#ED1C24"/>
<path d="M103.738 22.8733C103.216 23.8567 103.402 24.7053 103.822 25.4699C104.592 26.8734 105.462 28.2233 106.263 29.6114C106.578 30.1584 106.816 30.7494 107.162 31.4724C106.803 31.4145 106.638 31.435 106.538 31.365C103.552 29.2445 100.978 26.7689 100.1 23.0381C99.7903 21.7199 99.9103 20.3024 99.6355 18.9712C99.3273 17.4785 98.7933 16.0311 98.359 14.5641L98.1212 14.6243V20.1792C97.5076 19.5318 96.9217 19.0193 96.4638 18.4101C94.6251 15.9662 93.6712 13.1208 92.9356 10.1985C92.5329 8.59562 92.2599 6.9587 91.8779 5.08934C93.0056 5.31525 93.9359 5.42727 94.8211 5.69192C99.4464 7.07353 102.651 10.2423 105.182 14.1944C106.09 15.6143 106.847 17.1317 107.761 18.7588C109.348 15.8182 110.875 12.9902 112.494 9.9945C114.085 12.9411 115.609 15.7641 117.229 18.7644C117.522 18.2491 117.762 17.8645 117.966 17.4612C119.217 14.9841 120.63 12.6191 122.547 10.591C125.144 7.84461 128.164 5.86135 131.967 5.27977C132.307 5.2275 132.654 5.2275 133.01 5.20229C132.691 9.4904 130.375 17.8897 126.965 19.992V14.4026C126.025 16.179 125.49 17.9966 125.249 19.9024C125.127 20.8742 125.151 21.8665 125.005 22.8336C124.755 24.492 124.01 25.9693 122.927 27.2099C121.82 28.4795 120.57 29.6268 119.351 30.7937C119.025 31.1055 118.585 31.2936 118.197 31.5387L117.976 31.366C118.163 30.9253 118.306 30.4576 118.546 30.0488C119.312 28.7428 120.167 27.4867 120.882 26.1541C121.252 25.4643 121.444 24.6661 121.627 23.896C121.693 23.6206 121.496 23.2822 121.388 22.8448C119.058 24.1181 117.738 25.9338 117.418 28.4725C116.959 32.1006 116.479 35.7259 116.049 39.3583C115.933 40.3338 115.424 40.8351 114.512 40.8743C113.212 40.9284 111.905 40.9494 110.606 40.8766C109.446 40.8117 109.118 40.3884 108.954 39.0721C108.522 35.5906 108.084 32.1095 107.667 28.6265C107.359 26.0444 106.061 24.1653 103.738 22.8733Z" fill="#ED1C24"/>
<path d="M37.75 21.7437H42.6561C41.8533 19.9318 41.0895 18.2053 40.2454 16.2976C39.3629 18.2235 38.5792 19.9337 37.75 21.7437ZM14.3985 21.7662H19.3264C18.5273 19.9579 17.7607 18.2225 16.9111 16.2981C16.0258 18.2244 15.2393 19.9365 14.3985 21.7662ZM52.1401 27.5175C49.9154 27.5175 47.8509 27.5367 45.7875 27.4914C45.5525 27.4863 45.2781 27.1507 45.1006 26.9098C43.2327 24.3557 40.6352 22.9088 37.6744 21.8572C36.8053 23.5263 35.9497 25.1165 35.1516 26.7362C34.8679 27.3094 34.543 27.5456 33.8728 27.5386C30.1973 27.5003 26.5208 27.5105 22.8444 27.532C22.3461 27.5344 22.0643 27.3724 21.7751 26.9644C19.9452 24.387 17.3496 22.9195 14.3415 21.8614C13.5879 23.3065 12.7869 24.6885 12.1371 26.1397C11.6699 27.1815 11.1021 27.6641 9.88081 27.5558C8.26645 27.413 6.63123 27.5208 4.83008 27.5208C8.86714 20.6553 12.8337 13.9111 16.8931 7.01006C20.7633 13.6698 24.5727 20.2268 28.486 26.9598C32.4105 20.2935 36.2686 13.7412 40.2287 7.0138C44.2199 13.8831 48.1416 20.6338 52.1401 27.5175Z" fill="#231F20"/>
<path d="M144.279 24.1354C146.251 24.1331 147.897 23.6024 149.076 22.5853C151.293 20.6707 151.264 17.9457 149.006 16.0722C146.526 14.0138 141.885 14.0114 139.39 16.0675C137.111 17.9429 137.168 20.9185 139.526 22.6941C140.933 23.7541 142.55 24.1382 144.279 24.1354ZM144.311 27.8405C140.725 27.7491 137.486 27.0998 134.691 24.99C130.488 21.818 130.556 16.713 134.823 13.603C136.99 12.0235 139.445 11.2137 142.077 10.9784C146.15 10.6144 150.064 11.1082 153.513 13.5549C155.184 14.74 156.429 16.2677 156.761 18.3644C157.16 20.8928 156.135 22.8957 154.292 24.5177C152.024 26.5135 149.278 27.3635 146.344 27.7014C145.611 27.7869 144.87 27.8037 144.311 27.8405Z" fill="#231F20"/>
<path d="M79.187 14.7022V23.9907C81.0414 23.7998 82.8551 23.7905 84.5793 23.3914C86.6507 22.912 87.5596 21.4581 87.5489 19.3175C87.5397 17.3333 86.4351 15.6675 84.4857 15.2469C82.78 14.8801 80.9983 14.874 79.187 14.7022ZM73.0498 27.4074V11.3C73.2491 11.266 73.4155 11.2146 73.5814 11.2146C76.9872 11.2244 80.3976 11.1493 83.7988 11.2828C86.7202 11.3967 89.4664 12.1696 91.6333 14.3442C94.8096 17.5341 94.3127 22.8369 90.5774 25.3499C88.4972 26.7493 86.1329 27.322 83.682 27.385C80.1663 27.4737 76.6465 27.4074 73.0498 27.4074Z" fill="#231F20"/>
<path d="M58.8936 19.5304C60.5381 19.3325 62.0686 19.2354 63.5587 18.9367C64.4616 18.7565 64.9993 18.0363 64.9974 17.0346C64.9969 16.0381 64.355 15.5354 63.5378 15.2264C62.0278 14.6546 60.4649 14.8717 58.8936 14.8773V19.5304ZM65.1031 22.0663C67.1754 23.8446 69.2171 25.5978 71.4576 27.5199H69.7937C68.9932 27.5199 68.1737 27.4083 67.396 27.5414C65.1754 27.9246 63.5689 27.0359 62.1613 25.3905C61.2593 24.3361 60.1603 23.4502 59.1462 22.4915C59.1105 22.457 59.0461 22.4528 58.8477 22.3818V27.4755H53.0596V11.209C53.6264 11.209 54.1516 11.2072 54.6758 11.2095C57.5801 11.2212 60.4853 11.1988 63.3895 11.2618C65.1796 11.3005 66.9274 11.623 68.4593 12.656C70.0416 13.7244 71.0048 15.1513 70.8467 17.1364C70.6919 19.079 69.5499 20.3561 67.86 21.1365C67.0127 21.5276 66.0843 21.7419 65.1031 22.0663Z" fill="#231F20"/>
<path d="M186.956 14.8759H179.767C179.767 15.6778 179.716 16.418 179.801 17.1438C179.824 17.3347 180.258 17.6139 180.509 17.6204C182.196 17.6619 183.886 17.6423 185.574 17.6423H186.624V21.2742H179.801V27.4573H173.943V11.2669H186.956V14.8759Z" fill="#231F20"/>
<path d="M165.214 23.8273H172.23V27.476H159.184V11.2725H165.214V23.8273Z" fill="#231F20"/>
</g>
<defs>
<clipPath id="clip0_5004_990">
<rect width="193" height="41" fill="white" transform="translate(0.03125)"/>
</clipPath>
</defs>
</svg>
