<svg width="216" height="46" viewBox="0 0 216 46" fill="none" xmlns="http://www.w3.org/2000/svg">
<g clip-path="url(#clip0_807_7758)">
<path d="M131.361 39.5306C131.447 38.755 131.512 38.1438 131.593 37.4036H208.809C209.105 37.4036 209.403 37.4072 209.701 37.4031C211.695 37.3723 212.743 36.3344 212.744 34.3559C212.747 25.3011 212.746 16.2453 212.746 7.19096C212.746 6.56954 212.753 5.94915 212.744 5.32722C212.714 3.52856 211.657 2.50499 209.817 2.48347C209.62 2.48142 209.421 2.48347 209.224 2.48347H5.76768C3.10032 2.48347 2.22979 3.35079 2.22979 6.01063V33.7642C2.22979 36.5419 3.09309 37.4036 5.87766 37.4036H119.089C119.181 38.1316 119.261 38.7668 119.358 39.5306H118.194C80.5365 39.5306 42.8779 39.5306 5.21934 39.5291C2.05165 39.5291 0.034348 37.5245 0.032799 34.3749C0.0307337 24.7642 0.0307337 15.1531 0.032799 5.54188C0.032799 2.31544 2.0057 0.336954 5.2591 0.335417C19.0999 0.329782 32.9411 0.332856 46.7819 0.332856C100.958 0.332856 155.134 0.333368 209.309 0.325684C210.589 0.325684 211.82 0.420458 212.889 1.1971C214.132 2.09874 214.893 3.29136 214.896 4.84054C214.909 14.9097 214.919 24.9773 214.889 35.0455C214.882 37.4476 212.829 39.4072 210.372 39.5276C210.142 39.5393 209.91 39.5306 209.679 39.5306H131.361Z" fill="#ED1C24"/>
<path d="M115.56 25.4306C114.978 26.51 115.186 27.4414 115.653 28.2805C116.511 29.821 117.48 31.3025 118.373 32.8261C118.723 33.4265 118.988 34.0751 119.374 34.8686C118.975 34.8051 118.791 34.8276 118.679 34.7508C115.353 32.4234 112.485 29.7062 111.507 25.6114C111.162 24.1647 111.296 22.6089 110.989 21.1478C110.646 19.5095 110.051 17.9209 109.568 16.3107L109.303 16.3768V22.4736C108.619 21.7631 107.966 21.2006 107.456 20.532C105.408 17.8496 104.345 14.7267 103.526 11.5192C103.077 9.75999 102.773 7.96336 102.348 5.91162C103.604 6.15957 104.64 6.28252 105.626 6.57299C110.779 8.08939 114.349 11.5674 117.168 15.905C118.18 17.4634 119.024 19.1288 120.041 20.9147C121.809 17.6872 123.511 14.5832 125.314 11.2953C127.086 14.5295 128.784 17.6278 130.588 20.9209C130.915 20.3553 131.183 19.9331 131.41 19.4905C132.803 16.7718 134.377 14.176 136.513 11.95C139.405 8.9357 142.77 6.75896 147.007 6.12064C147.385 6.06326 147.772 6.06326 148.168 6.0356C147.813 10.7421 145.233 19.9608 141.434 22.2682V16.1335C140.387 18.0833 139.791 20.0781 139.523 22.1698C139.387 23.2364 139.413 24.3256 139.251 25.387C138.973 27.2072 138.142 28.8286 136.936 30.1903C135.703 31.5838 134.31 32.843 132.952 34.1237C132.59 34.4659 132.099 34.6724 131.667 34.9414L131.42 34.7518C131.629 34.2682 131.788 33.7549 132.055 33.3061C132.909 31.8727 133.861 30.4941 134.658 29.0315C135.07 28.2743 135.284 27.3983 135.488 26.553C135.561 26.2508 135.342 25.8794 135.221 25.3993C132.626 26.7969 131.156 28.7897 130.799 31.5761C130.288 35.5582 129.753 39.5372 129.274 43.5238C129.145 44.5945 128.578 45.1447 127.562 45.1878C126.113 45.2472 124.657 45.2703 123.211 45.1903C121.919 45.1191 121.553 44.6545 121.37 43.2098C120.889 39.3886 120.401 35.5679 119.937 31.7451C119.593 28.9111 118.148 26.8486 115.56 25.4306Z" fill="#ED1C24"/>
<path d="M42.0494 24.1911H47.5147C46.6204 22.2024 45.7695 20.3074 44.8293 18.2137C43.8462 20.3274 42.9731 22.2045 42.0494 24.1911ZM16.0361 24.2157H21.5257C20.6356 22.2311 19.7816 20.3264 18.8351 18.2142C17.8489 20.3284 16.9727 22.2075 16.0361 24.2157ZM58.0799 30.5282C55.6015 30.5282 53.3017 30.5492 51.003 30.4995C50.7413 30.4939 50.4356 30.1256 50.2378 29.8612C48.157 27.0579 45.2635 25.4698 41.9652 24.3156C40.9971 26.1476 40.0439 27.893 39.1548 29.6707C38.8388 30.2998 38.4769 30.559 37.7302 30.5513C33.6357 30.5093 29.5402 30.5206 25.4447 30.5441C24.8896 30.5467 24.5757 30.3689 24.2535 29.9212C22.215 27.0923 19.3236 25.4816 15.9726 24.3202C15.133 25.9063 14.2408 27.4232 13.5169 29.0159C12.9964 30.1594 12.3639 30.6891 11.0034 30.5702C9.20503 30.4135 7.38341 30.5318 5.37695 30.5318C9.87419 22.9965 14.293 15.5943 18.815 8.02002C23.1263 15.3295 27.3701 22.5262 31.7294 29.916C36.1012 22.5994 40.3992 15.4078 44.8107 8.02412C49.2568 15.5636 53.6255 22.9729 58.0799 30.5282Z" fill="white"/>
<path d="M160.722 26.8159C162.918 26.8134 164.752 26.2309 166.065 25.1146C168.536 23.0132 168.503 20.0224 165.987 17.966C163.225 15.7068 158.055 15.7043 155.275 17.9609C152.736 20.0193 152.801 23.2852 155.427 25.234C156.995 26.3974 158.796 26.819 160.722 26.8159ZM160.757 30.8825C156.763 30.7821 153.155 30.0695 150.04 27.754C145.359 24.2724 145.434 18.6694 150.187 15.256C152.602 13.5224 155.336 12.6336 158.269 12.3754C162.806 11.9758 167.166 12.5178 171.008 15.2032C172.869 16.504 174.256 18.1807 174.626 20.4819C175.071 23.257 173.929 25.4553 171.876 27.2355C169.349 29.4261 166.291 30.359 163.022 30.7299C162.205 30.8236 161.38 30.8421 160.757 30.8825Z" fill="white"/>
<path d="M88.2098 16.4625V26.6572C90.2756 26.4477 92.296 26.4374 94.2168 25.9994C96.5243 25.4733 97.5368 23.8775 97.5249 21.5281C97.5146 19.3503 96.2842 17.5219 94.1125 17.0604C92.2124 16.6577 90.2276 16.651 88.2098 16.4625ZM81.373 30.4072V12.7284C81.5951 12.691 81.7804 12.6346 81.9653 12.6346C85.7593 12.6454 89.5584 12.5629 93.3473 12.7094C96.6017 12.8344 99.661 13.6828 102.075 16.0696C105.613 19.5706 105.06 25.3908 100.899 28.149C98.5813 29.6849 95.9475 30.3134 93.2172 30.3826C89.3008 30.4799 85.3798 30.4072 81.373 30.4072Z" fill="white"/>
<path d="M65.6035 21.7619C67.4355 21.5447 69.1404 21.4381 70.8004 21.1103C71.8062 20.9125 72.4052 20.1221 72.4031 19.0227C72.4026 17.9289 71.6875 17.3772 70.7772 17.038C69.095 16.4105 67.3539 16.6487 65.6035 16.6548V21.7619ZM72.5208 24.5452C74.8293 26.4971 77.1038 28.4212 79.5997 30.5309H77.7461C76.8544 30.5309 75.9415 30.4084 75.0751 30.5544C72.6014 30.975 70.8118 29.9996 69.2437 28.1938C68.2389 27.0365 67.0147 26.0642 65.8849 25.0119C65.8452 24.974 65.7734 24.9694 65.5524 24.8915V30.4822H59.1045V12.6287C59.736 12.6287 60.321 12.6267 60.9049 12.6292C64.1403 12.642 67.3766 12.6174 70.612 12.6866C72.606 12.7291 74.5531 13.0831 76.2596 14.2168C78.0223 15.3895 79.0953 16.9556 78.9192 19.1343C78.7467 21.2665 77.4745 22.6682 75.592 23.5247C74.6481 23.954 73.6139 24.1892 72.5208 24.5452Z" fill="white"/>
<path d="M208.264 16.653H200.255C200.255 17.5331 200.198 18.3456 200.293 19.1422C200.318 19.3517 200.802 19.6581 201.082 19.6653C202.961 19.7109 204.843 19.6893 206.724 19.6893H207.893V23.6755H200.293V30.4619H193.768V12.6919H208.264V16.653Z" fill="white"/>
<path d="M184.043 26.478H191.858V30.4826H177.325V12.6982H184.043V26.478Z" fill="white"/>
</g>
<defs>
<clipPath id="clip0_807_7758">
<rect width="215" height="45" fill="white" transform="translate(0.03125 0.325684)"/>
</clipPath>
</defs>
</svg>
